<?xml version="1.0" encoding="UTF-8" standalone="no"?><!DOCTYPE svg PUBLIC "-//W3C//DTD SVG 1.1//EN" "http://www.w3.org/Graphics/SVG/1.1/DTD/svg11.dtd"><svg width="100%" height="100%" viewBox="0 0 745 1053" version="1.1" xmlns="http://www.w3.org/2000/svg" xmlns:xlink="http://www.w3.org/1999/xlink" xml:space="preserve" xmlns:serif="http://www.serif.com/" style="fill-rule:evenodd;clip-rule:evenodd;stroke-linejoin:round;stroke-miterlimit:2;"><g id="Layer-1" serif:id="Layer 1"><path id="path4316" d="M613.059,315.111l8.634,-5.475l17.477,8.002l3.58,-2.316l-3.37,3.79l-17.267,-8.002l-8.007,5.684l-1.047,-1.683Z" style="fill-rule:nonzero;"/><path id="path4308" d="M507.884,314.097c-0,-0 27.429,26.225 44.973,27.702c22.306,1.879 62.264,-25.158 62.264,-25.158l-5.325,-7.272c0,-0 -37.603,28.041 -59.032,26.108c-15.565,-1.403 -38.793,-26.326 -38.793,-26.326l-4.087,4.946Z" style="fill:#008000;fill-rule:nonzero;"/><path id="path4286" d="M623.637,430.817c-3.342,0.008 -6.543,0.051 -9.545,0.11c-18.86,0.372 -38.364,-1.263 -56.419,4.201c-16.966,5.135 -50.626,8.932 -46.321,26.127c12.073,48.22 99.78,9.86 149.066,3.354c21.082,-2.783 54.116,-13.302 75.839,-20.784l-0,-9.102c-28.334,-1.551 -78.244,-3.989 -112.617,-3.906l-0.003,-0Z" style="fill:#f8ede6;fill-rule:nonzero;"/><path id="path4314" d="M610.736,310.901l12.217,-8.632l15.79,3.149l-15.79,-1.887l-12.217,9.682l-0,-2.312Z" style="fill-rule:nonzero;"/><path id="path4310" d="M580.076,239.947l-3.574,-14.294l-15.784,-11.317l16.975,10.125l2.383,15.486Z" style="fill:#1a1a1a;fill-rule:nonzero;"/><path id="path4312" d="M583.944,238.756l2.084,-22.334l-8.636,-27.994l10.423,29.78l-2.084,21.442l-1.787,-0.894Z" style="fill-rule:nonzero;"/><path id="path4306" d="M533.32,329.58c-0,0 36.158,-11.513 45.861,-26.206c12.335,-18.68 7.743,-66.707 7.743,-66.707l-8.934,1.191c-0,-0 6.6,46.44 -5.361,64.324c-8.687,12.991 -41.691,21.442 -41.691,21.442l2.382,5.956Z" style="fill:#800000;fill-rule:nonzero;"/><path id="path3355" d="M5.307,790.446c-1.768,15.182 -3.549,30.364 -5.307,45.547c12.892,-2.557 25.772,-5.178 38.656,-7.775c1.108,-5.799 7.206,-12.909 5.086,-17.91c-5.488,-3.416 -11.286,-13.713 -16.257,-4.502c-5.261,6.231 -9.105,-8.281 -13.742,-11.199c-3.58,-2.634 -8.968,-16.496 -8.437,-4.162l0.001,0.001Z" style="fill-rule:nonzero;"/><path id="path4328" d="M70.827,918.616c29.772,-19.444 64.445,-32.175 99.392,-38.746c62.913,-11.829 128.312,-5.994 192.049,0c77.96,7.332 228.121,-34.458 230.787,43.8c2.574,75.412 -144.09,48.207 -218.995,57.276c-75.266,9.114 -152.804,10.084 -227.425,-3.369c-34.61,-6.24 -99.393,-35.377 -99.393,-35.377c0,0 14.276,-17.505 23.585,-23.584l-0,-0Z" style="fill:#322626;fill-opacity:0.45;fill-rule:nonzero;"/><path id="path3353" d="M7.673,790.693l-4.956,42.337l34.22,-6.87l5.312,-14.025l-9.697,-7.922l-8.071,7.82l-16.808,-21.34Z" style="fill:#c8b7b7;fill-rule:nonzero;"/><path id="path3357" d="M14.888,815.87c6.079,14.028 12.168,28.053 18.241,42.084c9.867,-8.703 19.704,-17.442 29.554,-26.165c-2.026,-5.524 -0.252,-14.862 -4.606,-17.983c-6.438,-0.188 -16.622,-6.213 -16.276,4.246c-1.407,7.999 -12.032,-2.612 -17.491,-2.796c-4.371,-0.462 -16.04,-9.726 -9.423,0.614l0.001,-0Z" style="fill-rule:nonzero;"/><path id="path3351" d="M17.046,814.938l16.964,39.105l26.148,-23.118l-2.445,-14.796l-12.363,-1.984l-3.056,10.814l-25.248,-10.021Z" style="fill:#c8b7b7;fill-rule:nonzero;"/><path id="path3341" d="M33.827,745.411c4.991,-52.986 11.049,-105.991 15.397,-158.96c-0.426,-8.034 0.158,-20.139 -8.945,-23.631c-8.319,-0.665 -11.816,9.616 -14.62,15.635c-2.996,53.139 -5.944,106.285 -8.853,159.431c5.526,3.867 11.09,7.68 16.634,11.521c0.129,-1.33 0.258,-2.659 0.388,-3.989l-0.001,-0.007Z" style="fill-rule:nonzero;"/><path id="path3361" d="M68.916,810.563c-5.724,2.953 -17.581,2.532 -12.235,11.523c2.678,7.743 -11.769,3.546 -16.666,6.008c-8.676,0.506 -16.33,1.347 -5.189,7.261c11.157,8.623 22.294,17.271 33.463,25.878c4.479,-12.359 8.902,-24.737 13.339,-37.109c-4.302,-3.718 -7.569,-13.152 -12.713,-13.561l0.001,0Z" style="fill-rule:nonzero;"/><path id="path3343" d="M39.668,565.119c9.112,2.08 6.978,27.155 6.978,27.155l-15.152,152.911l-12.268,-8.491l8.749,-157.71c0,0 5.797,-15.219 11.693,-13.873l0,0.008Z" style="fill:#c8b7b7;fill-rule:nonzero;"/><path id="path3321" d="M83.055,480.297c11.043,1.328 22.087,2.648 33.13,3.98c-13.977,27.455 -27.901,54.937 -41.863,82.399c-9.79,-4.159 -19.565,-8.356 -29.333,-12.566c12.163,-24.652 24.278,-49.328 36.408,-73.997l1.172,0.131l0.487,0.054l-0.001,-0.001Z" style="fill-rule:nonzero;"/><path id="path3323" d="M82.749,482.644l-34.545,70.281l25.015,10.721l39.31,-77.429l-29.78,-3.573Z" style="fill:#c8b7b7;fill-rule:nonzero;"/><path id="path3325" d="M118.692,410.499c9.871,7.372 19.683,14.825 29.591,22.147c-0.442,20.918 -0.836,41.838 -1.253,62.757c-23.561,3.379 -48.941,6.727 -71.749,-1.769c-11.781,-3.855 -18.595,-17.16 -14.813,-28.964c3.875,-13.962 12.366,-26.771 22.553,-36.814c10.34,-8.079 22.439,-13.478 34.676,-18.131l0.931,0.724l0.064,0.05l-0,-0Z" style="fill-rule:nonzero;"/><path id="path3327" d="M117.288,412.374c0,-0 -28.023,10.337 -36.927,21.442c-10.684,13.324 -24.632,34.415 -15.486,48.839c14.375,22.669 79.81,10.72 79.81,10.72l1.192,-59.56l-28.589,-21.441Z" style="fill:#f95;fill-rule:nonzero;"/><path id="path3329" d="M51.457,536.464c18.1,0.576 32.604,19.577 27.712,37.146c-3.807,16.885 -23.675,27.696 -39.726,21.078c-16.667,-5.858 -25.101,-27.563 -15.736,-42.82c5.463,-9.814 16.463,-16.02 27.749,-15.403l0.001,-0.001Z" style="fill-rule:nonzero;"/><path id="path3331" d="M24.365,571.878c0.01,0.046 0.02,0.093 0.029,0.139c2.943,14.021 16.902,23.138 30.924,20.195c14.021,-2.943 23.137,-16.902 20.195,-30.923c-0.01,-0.047 -0.02,-0.093 -0.03,-0.139c-0.009,-0.046 -0.019,-0.093 -0.029,-0.139c-2.942,-14.021 -16.902,-23.137 -30.923,-20.195c-14.021,2.943 -23.138,16.902 -20.195,30.924c0.01,0.046 0.02,0.092 0.029,0.138Z" style="fill:#f95;fill-rule:nonzero;"/><path id="path3137" d="M457.778,105.787c-11.11,40.193 -22.272,80.373 -33.349,120.575c5.239,1.989 12.506,10.583 14.044,0.875c17.499,-35.842 35.027,-71.671 52.508,-107.52c-10.807,-5.582 -21.617,-11.16 -32.429,-16.731c-0.258,0.933 -0.516,1.867 -0.774,2.8l0,0.001Z" style="fill-rule:nonzero;"/><path id="path3135" d="M427.201,225.183l32.85,-118.76l27.795,14.32l-53.065,108.657l-7.58,-4.217Z" style="fill:#f95;fill-rule:nonzero;"/><path id="path3141" d="M470.785,88.983c-17.048,0.515 -30.512,19.061 -24.948,35.413c4.442,16.076 24.669,24.849 39.246,16.436c14.815,-7.434 19.601,-28.77 8.623,-41.457c-5.453,-6.912 -14.116,-10.804 -22.921,-10.392l0,-0Z" style="fill-rule:nonzero;"/><path id="path3143" d="M495.439,121.388c-0.008,0.042 -0.017,0.084 -0.026,0.126c-2.674,12.74 -15.358,21.024 -28.098,18.35c-12.74,-2.674 -21.023,-15.358 -18.35,-28.098c0.009,-0.042 0.018,-0.084 0.027,-0.126c0.009,-0.042 0.018,-0.084 0.026,-0.126c2.674,-12.74 15.358,-21.024 28.098,-18.35c12.74,2.674 21.024,15.358 18.35,28.098c-0.009,0.042 -0.018,0.084 -0.027,0.126Z" style="fill:#f00;fill-rule:nonzero;"/><path id="path3299" d="M640.122,326.396c-3.52,2.964 -19.975,4.916 -11.276,8.808c7.947,5.444 17.23,9.695 24.347,15.879c5.163,10.909 10.327,21.817 15.49,32.726c4.118,-8.017 9.832,-15.769 13.008,-23.952c0.526,-10.964 -8.744,-17.942 -13.929,-26.606c-9.182,-2.054 -18.546,-5.687 -27.639,-6.854l-0.001,-0.001Z" style="fill-rule:nonzero;"/><path id="path3297" d="M678.129,351.75l-11.793,-16.426l-25.269,-6.738l-10.95,4.633l24.426,15.161l14.32,30.322l10.529,-18.53l-1.263,-8.422Z" style="fill:#c8b7b7;fill-rule:nonzero;"/><path id="path3249" d="M561.008,475.533c-11.043,1.328 -22.087,2.648 -33.129,3.98c13.976,27.455 27.9,54.937 41.862,82.399c9.791,-4.159 19.565,-8.356 29.334,-12.566c-12.164,-24.652 -24.278,-49.329 -36.409,-73.997l-1.172,0.13l-0.486,0.054l-0,0Z" style="fill-rule:nonzero;"/><path id="path3247" d="M561.314,477.88l34.545,70.281l-25.015,10.72l-39.31,-77.428l29.78,-3.573Z" style="fill:#c8b7b7;fill-rule:nonzero;"/><path id="path3243" d="M525.372,405.735c-9.872,7.371 -19.684,14.825 -29.592,22.147c0.443,20.918 0.836,41.838 1.253,62.757c23.561,3.378 48.941,6.727 71.749,-1.769c11.781,-3.855 18.595,-17.16 14.813,-28.964c-3.875,-13.962 -12.366,-26.771 -22.552,-36.814c-10.341,-8.079 -22.44,-13.478 -34.677,-18.131l-0.931,0.731l-0.059,0.047l-0.004,-0.004Z" style="fill-rule:nonzero;"/><path id="path3241" d="M526.763,407.61c0,-0 28.023,10.337 36.928,21.442c10.684,13.324 24.631,34.415 15.485,48.838c-14.375,22.67 -79.81,10.721 -79.81,10.721l-1.191,-59.56l28.588,-21.441Z" style="fill:#f95;fill-rule:nonzero;"/><path id="path4330" d="M526.775,407.61l-10.141,7.594l-1.769,10.283l22.629,2.358l-4.752,20.271l16.65,-8.325l20.271,20.224l11.132,-1.581c-3.042,-10.507 -10.66,-21.344 -17.098,-29.374c-8.904,-11.108 -36.922,-21.45 -36.922,-21.45Z" style="fill:#c58860;fill-rule:nonzero;"/><path id="path3233" d="M273.642,79.171c4.881,22.506 9.825,44.997 14.667,67.511c-5.688,2.916 -12.412,8.541 -13.445,-1.344c-8.696,-20.103 -17.414,-40.197 -26.097,-60.308c8.108,-2.776 16.196,-5.61 24.285,-8.439c0.197,0.86 0.393,1.72 0.59,2.58l0,0Z" style="fill-rule:nonzero;"/><path id="path3235" d="M271.307,79.69l14.319,65.7l-6.738,3.369l-26.954,-62.331l19.373,-6.738Z" style="fill:#f95;fill-rule:nonzero;"/><path id="path3237" d="M281.118,67.084c0.391,5.733 10.284,15.747 1.482,17.35c-8.403,3.865 -18.654,5.832 -25.957,10.826c-8.065,19.61 -16.158,39.21 -24.205,58.829c-4.201,-5.007 -8.442,-9.982 -12.677,-14.962c6.489,-18.112 12.921,-36.246 19.31,-54.392c13.729,-6.652 27.42,-13.384 41.126,-20.083c0.307,0.811 0.614,1.621 0.921,2.432l0,0Z" style="fill-rule:nonzero;"/><path id="path3239" d="M278.89,67.898l5.053,13.477l-28.638,10.95l-23.585,57.277l-9.265,-10.95l18.53,-52.224l37.905,-18.53Z" style="fill:#f95;fill-rule:nonzero;"/><path id="path3229" d="M363.299,109.489c-4.881,22.506 -9.825,44.997 -14.668,67.511c5.689,2.916 12.413,8.541 13.446,-1.344c8.696,-20.103 17.414,-40.197 26.096,-60.308c-8.107,-2.776 -16.195,-5.61 -24.285,-8.439c-0.196,0.86 -0.393,1.72 -0.589,2.58l-0,0Z" style="fill-rule:nonzero;"/><path id="path3223" d="M365.634,110.008l-14.32,65.7l6.739,3.369l26.953,-62.331l-19.372,-6.738Z" style="fill:#f95;fill-rule:nonzero;"/><path id="path3217" d="M355.822,97.402c-0.391,5.733 -10.283,15.746 -1.481,17.35c8.403,3.865 18.654,5.832 25.957,10.826c8.065,19.61 16.158,39.21 24.205,58.829c4.201,-5.007 8.441,-9.982 12.676,-14.962c-6.488,-18.112 -12.92,-36.246 -19.31,-54.392c-13.728,-6.652 -27.419,-13.384 -41.125,-20.083c-0.307,0.811 -0.614,1.621 -0.921,2.432l-0.001,0Z" style="fill-rule:nonzero;"/><path id="path3201" d="M133.314,895.102c-24.417,8.348 -48.854,16.639 -73.259,25.022c0.323,7.224 -6.057,19.079 -5.707,26.302c52.143,0.609 114.816,2.041 166.955,2.611c-8.276,-13.295 -20.295,-32.094 -28.517,-45.422c-19.818,-2.72 -39.711,-6.17 -59.478,-8.512l0.006,-0.001Z" style="fill-rule:nonzero;"/><path id="path3199" d="M134.08,897.343l-71.595,24.426l0.842,17.689l149.927,1.684l-21.899,-35.377l-57.275,-8.422Z" style="fill:#f95;fill-rule:nonzero;"/><path id="path3193" d="M169.976,877.048c-9.429,2.63 -19.435,4.035 -26.635,11.321c-2.925,3.566 -18.909,10.365 -11.687,11.428c9.121,1.218 19.458,3.494 23.51,12.962c2.885,4.668 5.415,9.547 7.478,14.627c11.519,-2.949 23.04,-5.889 34.566,-8.807c-2.183,-8.012 -3.154,-16.762 -6.007,-24.358c-6.668,-5.837 -13.35,-11.658 -20.01,-17.505l-1.138,0.311l-0.079,0.021l0.002,0Z" style="fill-rule:nonzero;"/><path id="path3191" d="M153.325,884.088l-19.058,13.699c-0,0 11.624,1.887 16.081,5.361c6.69,5.213 13.699,21.442 13.699,21.442l30.376,-7.743l-4.765,-20.847l-19.059,-16.676l-17.274,4.764Z" style="fill:#c8b7b7;fill-rule:nonzero;"/><path id="path3187" d="M187.558,728.242c-7.744,3.886 -17.373,6.094 -23.952,11.018c-7.887,26.56 -16.444,53.102 -23.916,79.671c3.669,22.468 7.371,44.93 11.019,67.4c7.052,1.398 15.839,-1.013 21.749,2.922c6.035,6.071 12.117,12.094 18.123,18.193c2.757,-3.927 15.837,-6.731 9.507,-11.571c-13.392,-15.073 -27.505,-30.959 -31.249,-51.555c-2.416,-10.754 -5.707,-21.709 -6.136,-32.621c9.927,-28.504 19.791,-57.03 29.757,-85.522c-1.634,0.688 -3.268,1.376 -4.901,2.064l-0.001,0.001Z" style="fill-rule:nonzero;"/><path id="path3181" d="M165.837,739.951l-23.824,78.619l10.721,65.516l19.059,1.191l19.058,19.059l8.339,-5.956c-0,-0 -19.923,-21.528 -26.206,-34.545c-7.661,-15.871 -13.104,-51.222 -13.104,-51.222l28.589,-82.193l-22.632,9.531Z" style="fill:#f95;fill-rule:nonzero;"/><path id="path4301" d="M177.169,748.3c0,0 -20.412,41.32 -21.45,63.714c-0.519,11.214 4.269,22.087 7.736,32.759c4.139,12.7 8.514,25.542 15.483,36.921c3.538,5.802 10.177,13.609 15.814,19.87l4.457,-3.172c0,0 -19.964,-21.544 -26.238,-34.563c-7.665,-15.872 -13.089,-51.226 -13.089,-51.226l20.342,-58.477l-3.055,-5.826Z" style="fill:#ffede1;fill-rule:nonzero;"/><path id="path3173" d="M459.877,882.826c-14.761,2.433 -23.506,16.653 -31.471,27.934c-3.215,5.768 -5.932,11.742 -8.365,17.872c16.232,9.699 32.143,25.96 48.532,34.989c30.857,-1.305 62.309,-3.779 93.165,-5.097c-0.789,-9.878 -2.175,-23.926 -3.028,-33.798c-23.988,-9.362 -48.807,-17.543 -72.264,-27.675c-6.307,-8.186 -15.763,-14.643 -26.569,-14.224l0,-0.001Z" style="fill-rule:nonzero;"/><path id="path3171" d="M485.738,899.878l70.753,26.533l2.106,25.69l-90.127,3.791l-45.484,-28.218c0,-0 5.592,-13.921 10.108,-19.795c6.786,-8.826 14.075,-19.509 24.847,-22.321c5.569,-1.454 11.777,1.063 16.847,3.79c4.459,2.399 10.95,10.529 10.95,10.529l-0,0.001Z" style="fill:#f95;fill-rule:nonzero;"/><path id="path3167" d="M453.58,855.008c-7.527,6.094 -16.611,11.181 -23.216,17.873c-2.319,11.179 -4.661,22.352 -6.965,33.535c4.388,3.092 9.167,15.247 13.313,12.233c7.217,-8.945 14.284,-20.145 25.749,-23.62c8.878,-0.579 17.383,2.784 25.685,5.491c-7.542,-11.78 -16.383,-23.507 -23.032,-35.377c1.164,-2.789 -8.815,-11.937 -11.534,-10.134l0,-0.001Z" style="fill-rule:nonzero;"/><path id="path3165" d="M462.153,865.763l20.216,30.323c-0,-0 -15.183,-5.266 -22.322,-2.948c-10.861,3.527 -24.847,23.584 -24.847,23.584l-9.266,-10.95l6.739,-32.429l22.321,-16.425l8.002,7.16l-0.843,1.685Z" style="fill:#c8b7b7;fill-rule:nonzero;"/><path id="path3147" d="M204.315,125.397c-7.518,1.46 -15.033,2.937 -22.552,4.385c9.777,23.113 19.479,46.258 29.296,69.353c4.03,-0.801 12.616,-0.837 10.318,-7.296c-5.31,-22.159 -9.767,-44.624 -14.813,-66.885l-2.248,0.442l-0.001,0.001Z" style="fill-rule:nonzero;"/><path id="path3149" d="M213.207,194.877l-26.296,-62.356l16.852,-3.298l14.144,64.886l-4.7,0.768Z" style="fill:#f95;fill-rule:nonzero;"/><path id="path3151" d="M194.445,115.303c-12.912,0.201 -20.702,16.327 -13.672,26.754c6.728,12.108 27.083,9.965 31.177,-3.206c4.527,-11.362 -5.104,-24.825 -17.505,-23.548l0,-0Z" style="fill-rule:nonzero;"/><path id="path3153" d="M207.25,126.917c0.01,0.021 0.021,0.042 0.031,0.064c3.187,6.399 0.544,14.288 -5.856,17.475c-6.399,3.187 -14.288,0.543 -17.475,-5.856c-0.011,-0.022 -0.021,-0.043 -0.031,-0.064c-0.011,-0.021 -0.022,-0.042 -0.032,-0.063c-3.187,-6.4 -0.543,-14.288 5.856,-17.475c6.4,-3.187 14.288,-0.544 17.475,5.856c0.011,0.021 0.021,0.042 0.032,0.063Z" style="fill:#f00;fill-rule:nonzero;"/><path id="path3129" d="M438.062,727.723c-8.427,1.559 -16.852,3.128 -25.281,4.68c5.582,39.499 12.065,78.999 17.079,118.5c-2.504,19.623 -6.289,39.322 -8.001,58.897c1.039,9.151 5.692,-3.578 6.511,-6.998c5.451,-13.784 10.754,-30.02 24.247,-37.919c7.064,-3.322 12.594,5.249 16.804,9.655c3.701,5.041 8.894,11.287 5.928,0.825c-11.566,-49.371 -23.406,-98.693 -35.077,-148.04l-1.16,0.212l-1.051,0.193l0.001,-0.005Z" style="fill-rule:nonzero;"/><path id="path3127" d="M438.51,730.058l34.497,145.28c-0,0 -10.585,-14.929 -18.01,-13.655c-18.605,3.192 -31.138,47.3 -31.138,47.3l8.523,-59.247l-16.949,-115.433l23.077,-4.245Z" style="fill:#f95;fill-rule:nonzero;"/><path id="path4296" d="M444.406,754.892l-3.384,0.554l23.431,110.447c4.693,4.033 8.549,9.434 8.549,9.434l-28.596,-120.435Z" style="fill:#ffede1;fill-rule:nonzero;"/><path id="path3417" d="M536.574,327.281c-95.675,3.811 -191.353,8.242 -287.024,11.668c-53.667,-2.832 -107.335,-5.671 -160.999,-8.499c19.263,55.777 37.315,112.697 45.068,171.353c5.319,43.606 -6.216,86.805 -16.493,128.784c-9.582,36.058 -23.203,75.317 -35.711,110.449c70.936,12.312 145.316,24.339 217.249,28.465c68.616,1.48 136.566,-5.776 204.678,-13.126c20.74,-2.375 40.917,-9.318 61.614,-12.022c-19.012,-69.877 -37.134,-140.328 -45.917,-212.261c-5.775,-48.734 2.751,-97.569 9.834,-145.658c3.194,-19.822 6.786,-39.581 10.729,-59.268c-1.007,0.037 -2.015,0.073 -3.022,0.11l-0.006,0.005Z" style="fill-rule:nonzero;"/><path id="path3111" d="M91.958,333c0,-0 45.584,126.26 45.484,192.049c-0.107,72.185 -50.538,210.575 -50.538,210.575c0,-0 144.774,26.697 218.051,28.361c85.951,1.952 257.013,-21.623 257.013,-21.623c-0,-0 -44.115,-154.597 -47.169,-234.16c-2.301,-59.924 21.899,-178.57 21.899,-178.57l-284.701,11.792l-160.039,-8.424Z" style="fill:#f95;fill-rule:nonzero;"/><path id="path4223" d="M214.079,462.998l19.059,-5.956l5.956,9.53l21.442,1.191l22.633,4.169l14.294,-8.934l16.081,8.934l23.824,-5.36l22.633,-1.787l15.486,-2.978l15.486,-8.339l9.529,-35.141l7.147,29.185l19.059,-6.552l10.125,-1.191l5.361,4.765l-2.978,14.295l5.956,31.566l-10.721,20.847l0.595,25.015l-7.147,7.147l1.191,16.676l-6.551,2.978l-0,16.082l-13.699,10.125l-16.677,41.691l-18.463,-32.162l-28.589,14.89l-15.486,-7.147l-21.442,5.36l-19.655,0l-19.059,-13.103l-36.927,-8.339l-19.059,5.361l-5.36,-8.934l-17.868,-16.677l-13.699,-16.676l16.677,-17.273l-0.596,-18.463l-8.934,-19.655l-5.956,-16.677l5.956,-10.125l13.699,-14.89l16.677,6.552Z" style="fill:#ccc;fill-rule:nonzero;"/><path id="path3423" d="M536.68,329.639l-68.937,2.878l-12.465,110.811l10.731,244.207l-44.079,-77.428l-13.078,108.418c0,-0 -36.638,-41.285 -59.586,-36.957c-19.516,3.667 -35.719,47.641 -35.719,47.641c0,-0 -22.818,-7.642 -34.563,-7.111c-13.679,0.613 -25.601,12.5 -39.28,11.91c-10.684,-0.472 -19.127,-12.075 -29.811,-11.91c-13.868,0.224 -24.799,12.759 -38.101,16.662c-8.078,2.359 -19.068,4.458 -30.153,6.227c48.785,7.865 119.043,18.006 163.323,19.009c85.954,1.957 257.001,-21.627 257.001,-21.627c0,-0 -44.115,-154.585 -47.169,-234.148c-2.3,-59.928 21.886,-178.582 21.886,-178.582Z" style="fill:#c58860;fill-rule:nonzero;"/><path id="path4213" d="M91.97,332.988c0,0 32.665,90.482 42.641,158.17c2.807,7.983 5,15.613 6.226,22.476c6.875,38.466 -10.731,116.708 -10.731,116.708c0,0 17.654,-74.94 17.878,-113.135c0.2,-35.707 -15.519,-106.024 -15.519,-106.024c-0,-0 31.815,66.496 35.754,102.451c6.262,57.228 -20.235,171.507 -20.235,171.507c-0,-0 30.836,-111.19 28.56,-167.934c-0.978,-24.151 -17.841,-70.305 -17.841,-70.305l-26.238,-67.889l-11.132,-44.48l-29.363,-1.545Z" style="fill:#924b1d;fill-rule:nonzero;"/><path id="path4291" d="M536.68,329.639l-8.172,0.33c-8.867,28.998 -20.141,69.28 -23.183,95.518c-5.024,43.407 -2.076,87.675 3.573,131c6.898,52.888 30.247,141.389 42.9,187.202c6.085,-0.801 10.165,-1.32 10.165,-1.32c0,-0 -44.115,-154.585 -47.169,-234.148c-2.3,-59.928 21.886,-178.582 21.886,-178.582Z" style="fill:#ffede1;fill-rule:nonzero;"/><path id="path4196" d="M536.68,329.639l-284.665,11.792l-110.045,-5.79l4.646,2.618l5.047,48.868l10.99,-31.179c0,-0 18.62,2.523 25.236,8.443c5.99,5.354 8.219,14.08 10.141,21.886c5.306,21.569 3.349,66.556 3.349,66.556c-0,0 2.241,-47.877 14.339,-67.405c6.415,-10.365 17.712,-17.311 28.632,-22.735c19.21,-9.552 62.31,-15.99 62.31,-15.99l2.548,60.659l15.141,-60.659c-0,-0 12.476,22.24 23.584,25.282c4.8,1.309 9.528,-5.542 14.34,-4.245c7.087,1.91 15.141,16.038 15.141,16.038c0,-0 1.922,-12.83 6.745,-16.038c4.918,-3.255 11.851,0.814 17.689,0c6.073,-0.849 12.381,-8.125 17.688,-5.047c14.257,8.266 11.792,48.018 11.792,48.018l9.245,-52.216l8.444,5.896c-0,0 4.198,-13.75 10.094,-15.188c5.625,-1.357 15.188,8.443 15.188,8.443l11.793,-11.792l9.245,67.404c-0,0 -4.823,-51.556 13.49,-62.357c5.047,-2.984 16.839,5.047 16.839,5.047l8.031,-10.837c1.733,-9.21 2.983,-15.472 2.983,-15.472Z" style="fill:#713a16;fill-rule:nonzero;"/><path id="path3109" d="M539.228,332.163c-0,-0 -179.019,35.875 -269.536,33.691c-57.198,-1.379 -87.07,-6.353 -169.09,-29.476c-55.122,-15.539 104.318,-30.862 158.135,-33.696c93.88,-4.944 280.491,29.481 280.491,29.481Z" style="fill-rule:nonzero;"/><path id="path3103" d="M115.248,205.738c0,-0 116.008,61.657 178.299,81.315c80.081,25.269 247.685,45.959 247.685,45.959l-199.23,-120.989l-133.701,-10.849l-93.053,4.564Z" style="fill-rule:nonzero;"/><path id="path3099" d="M358.829,188.427c-33.872,-5.581 -68.416,-6.977 -102.662,-5.451c-46.687,3.437 -93.282,10.364 -139.172,19.478c-10.556,3.336 5.53,4.786 9.667,4.521c58.084,2.597 117.574,-0.797 173.641,17.367c66.016,21.167 128.324,52.273 190.08,83.565c17.833,8.626 34.555,19.258 52.78,27.009c-17.052,-24.105 -37.66,-45.48 -57.833,-67.033c-26.462,-26.303 -53.664,-54.092 -88.58,-68.711c-12.205,-4.94 -24.964,-8.384 -37.922,-10.745l0.001,-0Z" style="fill-rule:nonzero;"/><path id="path3097" d="M118.515,204.264c-0,-0 109.703,-21.091 165.103,-19.562c41.562,1.146 85.721,2.809 122.864,21.483c53.608,26.949 130.658,123.819 130.658,123.819c0,-0 -161.707,-89.182 -250.208,-111.897c-54.559,-14.005 -92.172,-10.398 -168.417,-13.84l-0,-0.003Z" style="fill:#f95;fill-rule:nonzero;"/><path id="path3093" d="M351.978,151.706c-18.1,0.576 -32.604,19.577 -27.712,37.145c3.807,16.886 23.674,27.697 39.726,21.079c16.667,-5.858 25.101,-27.563 15.736,-42.82c-5.464,-9.814 -16.464,-16.02 -27.749,-15.403l-0.001,-0.001Z" style="fill-rule:nonzero;"/><path id="path3085" d="M286.755,110.067c-24.289,0.963 -45.022,24.05 -42.452,48.422c1.71,25.332 27.47,45.677 52.586,40.499c25.167,-3.954 43.177,-32.174 35.119,-56.603c-5.459,-19.502 -24.921,-33.502 -45.253,-32.318Z" style="fill-rule:nonzero;"/><path id="path3083" d="M328.174,163.074c-0.015,0.071 -0.03,0.142 -0.045,0.213c-4.508,21.481 -25.894,35.447 -47.375,30.939c-21.48,-4.509 -35.447,-25.894 -30.938,-47.375c0.014,-0.071 0.029,-0.142 0.045,-0.213c0.014,-0.071 0.029,-0.142 0.044,-0.213c4.508,-21.48 25.894,-35.447 47.375,-30.938c21.481,4.508 35.447,25.894 30.939,47.375c-0.015,0.07 -0.03,0.141 -0.045,0.212Z" style="fill:#fff;fill-rule:nonzero;"/><path id="path3091" d="M379.069,187.116c-0.009,0.047 -0.019,0.093 -0.028,0.139c-2.943,14.022 -16.902,23.138 -30.924,20.195c-14.021,-2.942 -23.137,-16.902 -20.195,-30.923c0.01,-0.046 0.02,-0.092 0.03,-0.139c0.009,-0.046 0.019,-0.092 0.028,-0.139c2.943,-14.021 16.902,-23.137 30.924,-20.195c14.021,2.943 23.138,16.902 20.195,30.924c-0.01,0.046 -0.02,0.092 -0.03,0.138Z" style="fill:#fff;fill-rule:nonzero;"/><path id="path3105" d="M310.13,158.853c-2.088,9.949 -11.993,16.418 -21.942,14.33c-9.949,-2.088 -16.418,-11.993 -14.33,-21.942c2.088,-9.949 11.993,-16.418 21.942,-14.33c9.949,2.088 16.418,11.993 14.33,21.942c0,0 0,0 0,0Z" style="fill-rule:nonzero;"/><path id="path3123" d="M435.373,442.314c-40.621,14.908 -81.92,29.687 -124.963,35.119c-33.491,2.323 -66.459,-6.362 -98.833,-13.634c-10.234,-2.547 -20.427,-5.254 -30.549,-8.218c4.113,42.147 8.251,84.29 12.382,126.437c34.576,11.804 70.113,23.804 106.978,25.721c32.799,-0.951 63.895,-13.148 94.403,-24.135c8.246,-3.179 16.391,-6.462 24.515,-9.953c6.602,-44.272 13.196,-88.547 19.863,-132.804c-1.265,0.491 -2.53,0.983 -3.796,1.474l0,-0.007Z" style="fill-rule:nonzero;"/><path id="path3121" d="M183.702,458.824c0,-0 79.615,23.224 120.317,21.441c45.612,-1.999 132.227,-35.736 132.227,-35.736l-19.068,127.463c-0,-0 -73.857,32.177 -113.164,33.353c-37.066,1.109 -108.399,-25.015 -108.399,-25.015l-11.913,-121.506Z" style="fill:#c8b7b7;fill-rule:nonzero;"/><path id="path3163" d="M439.406,862.184c-0,3.35 -1.521,6.107 -3.369,6.107c-1.849,-0 -3.369,-2.757 -3.369,-6.107c-0,-3.35 1.52,-6.107 3.369,-6.107c1.848,0 3.369,2.757 3.369,6.107Z" style="fill-rule:nonzero;"/><path id="path3177" d="M558.602,926.823l-87.179,0.843l42.958,3.79l44.221,-4.633Z" style="fill-rule:nonzero;"/><path id="path3179" d="M424.324,802.486c-0,-0 4.45,-8.738 8.636,-10.423c7.322,-2.948 23.527,2.68 23.527,2.68l0.893,4.467c0,-0 -16.313,-7.445 -23.824,-4.467c-4.227,1.676 -8.04,11.018 -8.04,11.018l-1.192,-3.275Z" style="fill-rule:nonzero;"/><path id="path3197" d="M175.365,875.156c0,3.104 -2.554,5.658 -5.658,5.658c-3.104,-0 -5.658,-2.554 -5.658,-5.658c-0,-3.104 2.554,-5.659 5.658,-5.659c3.104,0 5.658,2.555 5.658,5.659Z" style="fill-rule:nonzero;"/><path id="path3205" d="M162.264,812.309l-15.784,-9.828l-2.085,5.063l17.869,4.765Z" style="fill-rule:nonzero;"/><path id="path3207" d="M162.264,817.379l-20.251,8.934l2.085,5.956l18.166,-14.89Z" style="fill-rule:nonzero;"/><path id="path3209" d="M425.373,811.754c0,0 4.451,-8.738 8.636,-10.423c7.322,-2.947 23.527,2.681 23.527,2.681l0.894,4.467c-0,-0 -16.314,-7.446 -23.824,-4.467c-4.227,1.676 -8.041,11.018 -8.041,11.018l-1.192,-3.276Z" style="fill-rule:nonzero;"/><path id="path3213" d="M136.05,330.182c74.344,-7.881 102.152,-15.672 153.665,-16.677c63.272,-1.235 118.748,6.845 189.396,13.104c68.924,6.105 -135.718,35.113 -204.891,33.353c-47.102,-1.199 -185.033,-24.813 -138.182,-29.78l0.012,-0Z" style="fill:#333;fill-rule:nonzero;"/><path id="path3215" d="M358.051,98.216l-5.054,13.477l28.639,10.95l23.585,57.276l9.265,-10.949l-18.537,-52.228l-37.898,-18.526Z" style="fill:#f95;fill-rule:nonzero;"/><path id="path3257" d="M592.599,531.7c-18.1,0.576 -32.604,19.577 -27.711,37.145c3.806,16.886 23.674,27.697 39.725,21.079c16.668,-5.858 25.101,-27.563 15.736,-42.82c-5.463,-9.814 -16.463,-16.02 -27.748,-15.403l-0.002,-0.001Z" style="fill-rule:nonzero;"/><path id="path3259" d="M619.698,567.114c-0.01,0.046 -0.019,0.093 -0.029,0.139c-2.943,14.021 -16.902,23.138 -30.923,20.195c-14.022,-2.943 -23.138,-16.902 -20.195,-30.923c0.009,-0.047 0.019,-0.093 0.029,-0.139c0.01,-0.046 0.019,-0.093 0.029,-0.139c2.943,-14.021 16.902,-23.138 30.923,-20.195c14.022,2.943 23.138,16.902 20.195,30.923c-0.009,0.047 -0.019,0.093 -0.029,0.139Z" style="fill:#f95;fill-rule:nonzero;"/><path id="path3265" d="M667.728,395.641c-28.247,45.105 -57.458,89.749 -85.126,135.127c-3.226,7.371 -9.182,17.926 -2.617,25.132c7.135,4.329 14.875,-3.288 20.084,-7.407c26.534,-46.139 53.028,-92.304 79.487,-138.489c-3.202,-5.936 -6.462,-11.84 -9.692,-17.761c-0.712,1.13 -1.425,2.26 -2.137,3.39l0.001,0.008Z" style="fill-rule:nonzero;"/><path id="path3263" d="M581.562,554.117c-7.208,-5.949 5.956,-27.398 5.956,-27.398l82.193,-129.845l7.147,13.104l-78.619,136.99c0,0 -12.013,10.997 -16.676,7.148l-0.001,0.001Z" style="fill:#c8b7b7;fill-rule:nonzero;"/><path id="path3269" d="M674.945,410.534c-24.015,47.494 -49.032,94.615 -72.446,142.333c-2.541,7.634 -7.509,18.688 -0.313,25.266c7.5,3.66 14.512,-4.631 19.324,-9.208c22.215,-48.366 44.388,-96.755 66.525,-145.163c-3.73,-5.619 -7.516,-11.202 -11.272,-16.804c-0.606,1.191 -1.213,2.381 -1.819,3.571l0.001,0.005Z" style="fill-rule:nonzero;"/><path id="path3271" d="M603.59,576.216c-7.721,-5.267 3.432,-27.827 3.432,-27.827l70.008,-136.79l8.313,12.397l-65.797,143.583c-0,-0 -10.96,12.047 -15.955,8.638l-0.001,-0.001Z" style="fill:#c8b7b7;fill-rule:nonzero;"/><path id="path3285" d="M701.336,345.229c-7.282,0.342 -14.472,1.488 -21.632,2.8c-3.923,9.365 -10.327,18.617 -12.75,28.043c1.201,6.593 9.669,13.802 4.134,19.823c-2.803,4.79 1.035,17.136 7.045,8.79c6.77,1.65 -4.924,12.247 2.023,15.47c4.636,7.069 9.155,-5.65 13.732,-7.964c5.91,-3.663 14.6,-0.84 21.633,-1.883c7.68,0.349 11.579,-8.828 17.601,-12.668c3.828,-3.414 8.803,-6.484 6.833,-12.209c-1.822,-12.31 -2.379,-27.657 -13.339,-35.671c-7.506,-4.234 -16.806,-4.411 -25.28,-4.533l-0,0.002Z" style="fill-rule:nonzero;"/><path id="path3289" d="M695.664,270.147c-8.851,-3.659 -9.621,2.237 -8.984,9.785c-1.196,22.753 -2.355,45.508 -3.575,68.26c4.712,-1.322 16.252,4.295 15.107,-3.073c-0.16,-24.905 -0.349,-49.809 -0.492,-74.715l-1.17,-0.146l-0.886,-0.11l-0,-0.001Z" style="fill-rule:nonzero;"/><path id="path3277" d="M672.091,398.671l4.169,-6.551l-7.147,-16.975l12.21,-25.015c-0,-0 17.06,-3.283 25.589,-2.464c7.316,0.703 16.002,1.002 21.144,6.254c8.728,8.917 9.848,36.115 9.848,36.115l-19.357,17.868l-24.122,0.298l-11.317,11.614l-2.978,-2.978l2.978,-10.125l-3.275,-5.957l-5.956,3.872l-1.786,-5.956Z" style="fill:#f95;fill-rule:nonzero;"/><path id="path4323" d="M715.121,348.542l1.061,42.971l-11.049,16.545l13.408,-0.153l19.351,-17.866c-0,0 -1.109,-27.205 -9.847,-36.12c-3.278,-3.36 -8.03,-4.669 -12.924,-5.377Z" style="fill:#c58860;fill-rule:nonzero;"/><path id="path3291" d="M726.111,277.718c-11.108,22.996 -22.236,45.983 -33.333,68.985c4.88,0.557 13.271,10.276 15.094,3.022c9.513,-23.02 19.02,-46.042 28.536,-69.062c-2.77,-0.288 -9.521,-8.276 -10.296,-2.946l-0.001,0.001Z" style="fill-rule:nonzero;"/><path id="path3307" d="M721.784,335.5c-9.187,2.221 -15.998,10.82 -18.67,19.641c-3.275,7.897 -6.523,15.805 -9.815,23.696c6.186,4.881 12.075,8.512 15.991,-0.681c7.663,-11.19 20.809,-20.05 23.254,-33.959c0.462,-5.661 -5.798,-9.088 -10.76,-8.697l-0,-0Z" style="fill-rule:nonzero;"/><path id="path3279" d="M685.593,345.924l3.858,-74.12l5.947,0.678l0.469,73.839l-10.274,-0.397Z" style="fill:#c8b7b7;fill-rule:nonzero;"/><path id="path3281" d="M695.935,345.571l32.283,-66.833l5.219,2.93l-28.183,68.249l-9.319,-4.346Z" style="fill:#c8b7b7;fill-rule:nonzero;"/><path id="path3305" d="M708.447,348.377c-0,0 7.799,-10.02 13.477,-10.529c3.002,-0.269 6.96,1.383 8.002,4.212c1.829,4.966 -5.896,14.74 -5.896,14.74l-21.058,25.27l-6.738,-4.212l12.213,-29.481Z" style="fill:#c8b7b7;fill-rule:nonzero;"/><path id="path3311" d="M735.887,350.158c-6.987,1.689 -12.166,8.229 -14.199,14.937c-2.491,6.006 -4.961,12.021 -7.465,18.021c4.705,3.713 9.184,6.474 12.163,-0.517c5.827,-8.511 15.825,-15.249 17.686,-25.828c0.351,-4.305 -4.41,-6.911 -8.184,-6.614l-0.001,0.001Z" style="fill-rule:nonzero;"/><path id="path3313" d="M725.734,359.957c0,0 5.931,-7.62 10.25,-8.007c2.283,-0.205 5.293,1.052 6.085,3.203c1.391,3.776 -4.484,11.21 -4.484,11.21l-16.015,19.218l-5.125,-3.203l9.289,-22.421Z" style="fill:#c8b7b7;fill-rule:nonzero;"/><path id="path3315" d="M653.636,349.238l8.041,-15.486l5.658,0.596l4.169,4.169l-17.868,12.21l0,-1.489Z" style="fill-rule:nonzero;"/><path id="path3317" d="M685.192,303.071l11.317,-0.298l-0.596,4.17l-9.232,-1.192l-1.489,-2.68Z" style="fill-rule:nonzero;"/><path id="path3319" d="M713.789,308.142l8.636,3.276l-0.596,2.978l-10.423,-3.872l2.383,-2.382Z" style="fill-rule:nonzero;"/><path id="path3337" d="M44.995,756.13c4.99,-52.986 11.048,-105.991 15.397,-158.96c-0.426,-8.034 0.157,-20.138 -8.945,-23.631c-8.319,-0.665 -11.816,9.616 -14.62,15.635c-2.996,53.14 -5.945,106.285 -8.854,159.432c5.526,3.866 11.09,7.679 16.634,11.52c0.129,-1.33 0.259,-2.659 0.388,-3.989l-0,-0.007Z" style="fill-rule:nonzero;"/><path id="path3339" d="M50.835,575.838c9.112,2.08 6.978,27.155 6.978,27.155l-15.152,152.923l-12.268,-8.503l8.75,-157.709c-0,-0 5.796,-15.22 11.693,-13.874l-0.001,0.008Z" style="fill:#c8b7b7;fill-rule:nonzero;"/><path id="path3347" d="M33.471,831.306l33.692,26.112l11.792,-32.85l-9.265,-11.792l-11.793,4.211l2.527,10.95l-26.953,3.369Z" style="fill:#c8b7b7;fill-rule:nonzero;"/><path id="path3359" d="M15.183,735.576c-4.299,19.567 -9.859,39.24 -13.378,58.74c6.348,13.199 12.5,28.653 25.833,36.298c11.182,3.926 23.479,1.938 34.86,-0c-2.303,-8.92 -4.62,-17.836 -6.928,-26.755c6.72,-3.794 13.432,-7.6 20.158,-11.386c-10.994,-13.918 -21.007,-28.891 -32.673,-42.112c-9.032,-6.024 -18.078,-12.025 -27.099,-18.067c-0.258,1.094 -0.516,2.187 -0.774,3.28l0.001,0.002Z" style="fill-rule:nonzero;"/><path id="path3345" d="M42.736,752.97l29.481,38.746l-19.373,10.95l6.738,26.111c-0,0 -22.636,4.265 -32.008,-0.842c-12.24,-6.67 -23.584,-34.535 -23.584,-34.535l13.477,-57.275l25.269,16.845Z" style="fill:#f95;fill-rule:nonzero;"/><path id="path4318" d="M33.597,746.897l0,52.629l20.895,30.035c3.001,-0.401 5.085,-0.779 5.085,-0.779l-6.744,-26.131l19.385,-10.943l-29.482,-38.726l-9.139,-6.085Z" style="fill:#c58860;fill-rule:nonzero;"/><path id="path3363" d="M67.619,792.215c-5.069,3.996 -14.075,6.471 -16.82,11.37c4.555,11.856 5.6,28.177 18.036,34.803c11.092,2.538 22.478,-10.011 17.688,-20.783c-3.46,-10.054 -10.197,-18.518 -17.209,-26.386l-1.017,0.597l-0.678,0.398l0,0.001Z" style="fill-rule:nonzero;"/><path id="path3349" d="M68.846,794.243c-0,-0 18.911,20.438 16.003,32.008c-1.424,5.666 -8.52,10.813 -14.319,10.107c-5.533,-0.673 -10.95,-12.634 -10.95,-12.634l-6.318,-20.215l15.584,-9.266Z" style="fill:#c8b7b7;fill-rule:nonzero;"/><path id="path3375" d="M305.597,157.906c-1.567,7.462 -8.996,12.314 -16.458,10.747c-7.462,-1.566 -12.314,-8.995 -10.748,-16.457c1.566,-7.463 8.995,-12.314 16.458,-10.748c7.462,1.566 12.314,8.995 10.748,16.458c-0,-0 -0,-0 -0,-0Z" style="fill:#afdde9;fill-rule:nonzero;"/><path id="path3377" d="M298.158,155.256c-0.807,3.845 -4.635,6.345 -8.48,5.538c-3.845,-0.807 -6.345,-4.635 -5.538,-8.481c0.807,-3.845 4.635,-6.345 8.48,-5.538c3.845,0.807 6.345,4.635 5.538,8.481c0,-0 0,-0 0,-0Z" style="fill-rule:nonzero;"/><path id="path3379" d="M364.606,182.909c-1.305,6.219 -7.496,10.263 -13.715,8.957c-6.219,-1.305 -10.263,-7.496 -8.957,-13.715c1.305,-6.219 7.496,-10.262 13.715,-8.957c6.219,1.305 10.262,7.496 8.957,13.715c0,0 0,0 0,0Z" style="fill-rule:nonzero;"/><path id="path3381" d="M361.769,182.315c-0.979,4.664 -5.623,7.697 -10.287,6.718c-4.665,-0.979 -7.698,-5.623 -6.719,-10.287c0.979,-4.665 5.623,-7.698 10.288,-6.719c4.664,0.979 7.697,5.623 6.718,10.288c-0,-0 -0,-0 -0,-0Z" style="fill:#afdde9;fill-rule:nonzero;"/><path id="path3383" d="M357.128,180.66c-0.505,2.404 -2.898,3.967 -5.301,3.462c-2.404,-0.504 -3.966,-2.897 -3.462,-5.301c0.505,-2.403 2.898,-3.966 5.301,-3.461c2.404,0.504 3.966,2.897 3.462,5.3c-0,0 -0,0 -0,0Z" style="fill-rule:nonzero;"/><path id="path3385" d="M290.316,150.68c0,2.818 -2.319,5.137 -5.137,5.137c-2.818,-0 -5.137,-2.319 -5.137,-5.137c0,-2.818 2.319,-5.137 5.137,-5.137c2.818,-0 5.137,2.319 5.137,5.137Z" style="fill:#fff;fill-rule:nonzero;"/><path id="path3387" d="M294.479,164.371c-0,1.592 -1.311,2.903 -2.904,2.903c-1.592,0 -2.903,-1.311 -2.903,-2.903c-0,-1.593 1.311,-2.904 2.903,-2.904c1.593,-0 2.904,1.311 2.904,2.904Z" style="fill:#fff;fill-rule:nonzero;"/><path id="path3389" d="M308.335,159.17c-0,2.655 -2.185,4.839 -4.839,4.839c-2.655,0 -4.84,-2.184 -4.84,-4.839c0,-2.655 2.185,-4.839 4.84,-4.839c2.654,-0 4.839,2.184 4.839,4.839Z" style="fill:#fff;fill-rule:nonzero;"/><path id="path3391" d="M353.9,174.5c0,2.818 -2.319,5.137 -5.137,5.137c-2.818,0 -5.137,-2.319 -5.137,-5.137c0,-2.818 2.319,-5.137 5.137,-5.137c2.818,0 5.137,2.319 5.137,5.137Z" style="fill:#fff;fill-rule:nonzero;"/><path id="path3393" d="M357.615,186.045c-0,1.388 -1.143,2.531 -2.532,2.531c-1.388,0 -2.531,-1.143 -2.531,-2.531c0,-1.389 1.143,-2.532 2.531,-2.532c1.389,0 2.532,1.143 2.532,2.532Z" style="fill:#fff;fill-rule:nonzero;"/><path id="path3395" d="M360.303,179.04c0,1.388 -0.705,2.53 -1.563,2.53c-0.858,-0 -1.563,-1.142 -1.563,-2.53c-0,-1.388 0.705,-2.53 1.563,-2.53c0.858,0 1.563,1.142 1.563,2.53Z" style="fill:#fff;fill-rule:nonzero;"/><path id="path3399" d="M384.195,483.269c-14.08,-0.236 -22.984,18.443 -14.187,29.374c7.755,11.575 27.989,9.068 32.356,-4.274c4.732,-11.798 -5.229,-26.341 -18.167,-25.095l-0.002,-0.005Z" style="fill-rule:nonzero;"/><path id="path3397" d="M399.309,501.706c-0,7.842 -6.453,14.295 -14.295,14.295c-7.841,-0 -14.294,-6.453 -14.294,-14.295c0,-7.841 6.453,-14.294 14.294,-14.294c7.842,-0 14.295,6.453 14.295,14.294Z" style="fill:#f00;fill-rule:nonzero;"/><path id="path3405" d="M324.632,492.797c-14.085,-0.233 -22.98,18.444 -14.187,29.37c7.754,11.574 27.988,9.068 32.355,-4.275c4.732,-11.798 -5.229,-26.34 -18.167,-25.095l-0.001,0Z" style="fill-rule:nonzero;"/><path id="path3407" d="M339.749,511.234c-0,7.842 -6.453,14.295 -14.295,14.295c-7.842,-0 -14.294,-6.453 -14.294,-14.295c-0,-7.841 6.452,-14.294 14.294,-14.294c7.842,-0 14.295,6.453 14.295,14.294Z" style="fill:#0f0;fill-rule:nonzero;"/><path id="path3409" d="M262.699,491.606c-14.085,-0.233 -22.98,18.444 -14.187,29.37c7.754,11.574 27.988,9.068 32.355,-4.275c4.732,-11.798 -5.229,-26.34 -18.167,-25.095l-0.001,0Z" style="fill-rule:nonzero;"/><path id="path3411" d="M277.807,510.043c0,7.842 -6.453,14.295 -14.294,14.295c-7.842,-0 -14.295,-6.453 -14.295,-14.295c0,-7.841 6.453,-14.294 14.295,-14.294c7.841,-0 14.294,6.453 14.294,14.294Z" style="fill:#00f;fill-rule:nonzero;"/><path id="path3413" d="M210.282,482.078c-14.085,-0.234 -22.979,18.444 -14.187,29.37c7.755,11.574 27.989,9.068 32.355,-4.275c4.733,-11.798 -5.228,-26.34 -18.167,-25.095l-0.001,-0Z" style="fill-rule:nonzero;"/><path id="path3415" d="M225.394,500.515c0,7.842 -6.453,14.295 -14.294,14.295c-7.842,-0 -14.295,-6.453 -14.295,-14.295c0,-7.841 6.453,-14.294 14.295,-14.294c7.841,-0 14.294,6.453 14.294,14.294Z" style="fill:#f00;fill-rule:nonzero;"/><path id="path3421" d="M202.759,546.971c-0,-0 61.38,18.42 92.913,17.867c33.804,-0.592 98.87,-22.632 98.87,-22.632l0,20.25c0,0 -66.487,25.169 -101.252,25.015c-31.972,-0.14 -92.913,-23.824 -92.913,-23.824l2.382,-16.676Z" style="fill-rule:nonzero;"/><path id="path4203" d="M96.947,924.524l-14.34,8.396l-5.896,0.849l-9.799,5.708l146.33,1.662l-9.174,-14.846l-18.679,2.429l-21.085,5.896l-19.339,0.849l-15.189,-8.443l-14.292,6.745l-18.537,-9.245Z" style="fill:#713a16;fill-rule:nonzero;"/><path id="path4208" d="M423.522,927.991l44.952,27.889l90.14,-3.798l-0.625,-7.7l-9.587,-0.472l-16.839,-2.547l-13.491,5.896l-26.084,0.849l-15.189,-5.896l-10.943,3.349l-12.641,-6.745l-3.349,-10.094l-15.991,3.396l-10.353,-4.127Z" style="fill:#713a16;fill-rule:nonzero;"/><path id="path4218" d="M239.15,199.736c-7.123,-0.083 -14.34,1.108 -21.486,1.179c-8.726,0.094 -17.5,0.153 -26.238,-0c-5.955,-0.095 -17.83,-0.59 -17.83,-0.59l-13.042,5.342c49.964,1.274 82.971,1.274 126.39,12.429c88.501,22.712 250.185,111.909 250.185,111.909c-0,-0 -40.377,-50.778 -83.03,-89.032l-4.752,5.825c-0,0 12.582,4.965 11.91,10.13c-0.601,4.587 -12.5,5.932 -12.5,5.932c0,-0 -16.957,-9.941 -26.238,-9.505c-4.162,0.2 -7.134,5.483 -11.308,5.342c-9.776,-0.318 -18.384,-7.712 -25.613,-14.292c-5.696,-5.201 -6.285,-15.425 -13.09,-19.057c-14.528,-7.759 -33.926,4.965 -49.445,-0.589c-7.181,-2.571 -10.719,-11.651 -17.877,-14.292c-10.99,-4.069 -23.62,1.108 -35.117,-1.18c-8.314,-1.662 -15.483,-7.535 -23.844,-8.962c-2.347,-0.401 -4.693,-0.554 -7.075,-0.589Z" style="fill:#e7782e;fill-rule:nonzero;"/><path id="path4225" d="M275.423,465.38l7.147,-8.934l-8.339,-6.551l-10.125,6.551l11.317,8.934Z" style="fill:#ccc;fill-rule:nonzero;"/><path id="path4227" d="M340.351,461.5l6.254,-3.871l2.382,3.574l-3.574,-0l-12.805,4.764l7.743,-4.467Z" style="fill:#ccc;fill-rule:nonzero;"/><path id="path4229" d="M122.265,620.059c-11.345,45.294 -25.849,88.383 -32.134,106.461l10.2,-3.243l15.483,-22.629l25.023,10.731l-7.157,-15.519l19.056,-20.224l-27.417,3.573l-7.146,-15.483l4.787,-22.665l-0.695,-21.002Z" style="fill:#bababa;fill-rule:nonzero;"/><path id="path4238" d="M477.931,109.808c0,5.881 -4.839,10.721 -10.721,10.721c-5.881,-0 -10.721,-4.84 -10.721,-10.721c0,-5.882 4.84,-10.721 10.721,-10.721c5.882,-0 10.721,4.839 10.721,10.721Z" style="fill:#fff;fill-rule:nonzero;"/><path id="path4240" d="M196.804,128.569c-0,2.777 -2.286,5.063 -5.063,5.063c-2.777,-0 -5.063,-2.286 -5.063,-5.063c0,-2.777 2.286,-5.062 5.063,-5.062c2.777,-0 5.063,2.285 5.063,5.062Z" style="fill:#fff;fill-rule:nonzero;"/><path id="path4242" d="M99.871,425.027c0,-0 -11.272,3.448 -15.486,7.296c-8.033,7.336 -16.528,28.142 -16.528,28.142c0,0 11.881,-16.227 18.762,-23.527c4.074,-4.321 13.252,-11.912 13.252,-11.912l0,0.001Z" style="fill:#fff;fill-rule:nonzero;"/><path id="path4244" d="M39.656,545.792c0,-0 -9.646,5.496 -11.897,10.212c-2.586,5.419 -0.526,18.005 -0.526,18.005c-0,-0 -0.178,-11.021 2,-15.898c2.292,-5.135 11.055,-12.741 11.055,-12.741l-0.632,0.422Z" style="fill:#fff;fill-rule:nonzero;"/><path id="path4246" d="M193.231,194.677l55.39,-6.552l7.445,6.85l-62.835,-0.298Z" style="fill:#fff;fill-rule:nonzero;"/><path id="path4248" d="M235.919,617.913l3.369,58.119l-10.108,-30.322l6.739,-27.797Z" style="fill:#bf7b4f;fill-rule:nonzero;"/><path id="path4250" d="M333.134,634.163l-18.746,55.116l2.044,-31.898l16.702,-23.218Z" style="fill:#bf7b4f;fill-rule:nonzero;"/><path id="path4252" d="M280.906,389.898l-18.746,55.116l2.044,-31.898l16.702,-23.218Z" style="fill:#bf7b4f;fill-rule:nonzero;"/><path id="path4254" d="M332.615,403.931l38.264,9.773l-18.882,-10.659l-19.382,0.886Z" style="fill:#bf7b4f;fill-rule:nonzero;"/><path id="path4256" d="M280.552,392.185l-1.684,26.954l-16.004,24.006l17.688,-50.96Z" style="fill:#ffad76;fill-rule:nonzero;"/><path id="path4258" d="M235.541,618.479l3.96,58.082l6.218,-31.352l-10.178,-26.73Z" style="fill:#ffad76;fill-rule:nonzero;"/><path id="path4260" d="M333.134,634.163l-18.756,55.112l17.833,-26.527l0.923,-28.585Z" style="fill:#ffad76;fill-rule:nonzero;"/><path id="path4262" d="M333.028,403.636l38.314,9.573l-21.679,0.412l-16.635,-9.985Z" style="fill:#ffad76;fill-rule:nonzero;"/></g></svg>