<?xml version="1.0" encoding="UTF-8" standalone="no"?><!DOCTYPE svg PUBLIC "-//W3C//DTD SVG 1.1//EN" "http://www.w3.org/Graphics/SVG/1.1/DTD/svg11.dtd"><svg width="100%" height="100%" viewBox="0 0 246 77" version="1.1" xmlns="http://www.w3.org/2000/svg" xmlns:xlink="http://www.w3.org/1999/xlink" xml:space="preserve" xmlns:serif="http://www.serif.com/" style="fill-rule:evenodd;clip-rule:evenodd;stroke-linejoin:round;stroke-miterlimit:2;"><g><text x="-2.033px" y="15.358px" style="font-family:'KGHAPPYSolid', 'KG HAPPY Solid';font-size:16.791px;fill:#fff;">I<tspan x="3.44px 14.095px 21.881px 31.47px 43.831px 56.257px 68.06px 80.552px 86.025px 97.041px " y="15.358px 15.358px 15.358px 15.358px 15.358px 15.358px 15.358px 15.358px 15.358px 15.358px ">ntroducing</tspan></text></g><g><text x="-1.51px" y="72.886px" style="font-family:'KGHAPPYSolid', 'KG HAPPY Solid';font-size:12.884px;fill:#fff;">C<tspan x="8.302px 17.384px 21.383px 25.381px 35.243px 45.319px 54.804px 62.162px 72.024px 77.998px 81.657px 91.067px 100.652px 104.047px 117.495px 127.08px 136.665px 142.639px 146.839px 155.292px 165.268px 168.662px 178.147px 185.153px 195.128px 204.99px 213.443px 217.643px 224.863px 234.448px " y="72.886px 72.886px 72.886px 72.886px 72.886px 72.886px 72.886px 72.886px 72.886px 72.886px 72.886px 72.886px 72.886px 72.886px 72.886px 72.886px 72.886px 72.886px 72.886px 72.886px 72.886px 72.886px 72.886px 72.886px 72.886px 72.886px 72.886px 72.886px 72.886px 72.886px ">ollaborative meeting organiser</tspan></text></g><g><text x="-5.831px" y="60.729px" style="font-family:'KGHAPPYSolid', 'KG HAPPY Solid';font-size:48.153px;fill:#fff;">L<tspan x="18.283px 46.159px 74.13px " y="60.729px 60.729px 60.729px ">ETS</tspan></text><g transform="matrix(0.98227,0.187474,-0.187474,0.98227,-6.01659,-14.8412)"><text x="85.905px" y="33.624px" style="font-family:'KGHAPPYSolid', 'KG HAPPY Solid';font-size:25.017px;fill:#fff;">&apos;</text></g><text x="110.216px" y="60.729px" style="font-family:'KGHAPPYSolid', 'KG HAPPY Solid';font-size:48.153px;fill:#fff;">M<tspan x="159.912px 189.293px 217.169px " y="60.729px 60.729px 60.729px ">EET</tspan></text></g></svg>