<?xml version="1.0" encoding="UTF-8" standalone="no"?><!DOCTYPE svg PUBLIC "-//W3C//DTD SVG 1.1//EN" "http://www.w3.org/Graphics/SVG/1.1/DTD/svg11.dtd"><svg width="100%" height="100%" viewBox="0 0 492 185" version="1.1" xmlns="http://www.w3.org/2000/svg" xmlns:xlink="http://www.w3.org/1999/xlink" xml:space="preserve" xmlns:serif="http://www.serif.com/" style="fill-rule:evenodd;clip-rule:evenodd;stroke-linejoin:round;stroke-miterlimit:2;"><path d="M446.76,36.676l-113.562,113.564l-333.373,-0.008l-0,-113.556l446.935,-0Z" style="fill:#313282;fill-rule:nonzero;"/><path d="M491.52,-0.764l-185.562,185.564l-15.893,-0.008l185.707,-185.556l15.748,-0Z" style="fill:#f80074;fill-rule:nonzero;"/><g><path d="M19.944,100.656l18.886,0l-0,9.115l-30.382,-0l0,-57.314l11.496,-0l-0,48.199Z" style="fill:#fff;fill-rule:nonzero;"/><path d="M84.319,86.04c0,1.643 -0.109,3.121 -0.328,4.434l-33.255,0c0.273,3.285 1.423,5.858 3.448,7.719c2.026,1.861 4.517,2.792 7.473,2.792c4.269,-0 7.307,-1.834 9.114,-5.502l12.399,0c-1.314,4.38 -3.832,7.979 -7.554,10.798c-3.723,2.819 -8.294,4.229 -13.713,4.229c-4.379,-0 -8.307,-0.972 -11.783,-2.915c-3.476,-1.944 -6.186,-4.694 -8.129,-8.252c-1.943,-3.559 -2.915,-7.664 -2.915,-12.317c-0,-4.708 0.958,-8.841 2.874,-12.399c1.916,-3.558 4.598,-6.295 8.047,-8.211c3.448,-1.916 7.417,-2.874 11.906,-2.874c4.324,-0 8.197,0.931 11.619,2.792c3.421,1.861 6.076,4.502 7.964,7.923c1.889,3.422 2.833,7.349 2.833,11.783Zm-11.906,-3.284c-0.055,-2.956 -1.122,-5.324 -3.202,-7.103c-2.08,-1.779 -4.626,-2.668 -7.637,-2.668c-2.846,-0 -5.241,0.862 -7.184,2.586c-1.944,1.725 -3.134,4.12 -3.572,7.185l21.595,0Z" style="fill:#fff;fill-rule:nonzero;"/><path d="M101.973,73.724l0,22.006c0,1.532 0.37,2.641 1.109,3.325c0.739,0.684 1.984,1.027 3.736,1.027l5.337,-0l0,9.689l-7.226,-0c-9.689,-0 -14.533,-4.708 -14.533,-14.123l-0,-21.924l-5.42,-0l0,-9.443l5.42,-0l-0,-11.249l11.577,-0l0,11.249l10.182,-0l0,9.443l-10.182,-0Z" style="fill:#fff;fill-rule:nonzero;"/><path d="M133.75,110.51c-3.722,-0 -7.061,-0.671 -10.017,-2.012c-2.956,-1.341 -5.296,-3.161 -7.021,-5.46c-1.724,-2.3 -2.668,-4.845 -2.833,-7.637l11.578,0c0.219,1.752 1.081,3.203 2.587,4.352c1.505,1.15 3.38,1.724 5.624,1.724c2.19,0 3.901,-0.437 5.132,-1.313c1.232,-0.876 1.848,-1.998 1.848,-3.367c-0,-1.478 -0.753,-2.586 -2.258,-3.325c-1.506,-0.739 -3.901,-1.547 -7.185,-2.423c-3.394,-0.821 -6.172,-1.669 -8.334,-2.545c-2.163,-0.876 -4.024,-2.217 -5.584,-4.024c-1.56,-1.806 -2.34,-4.242 -2.34,-7.308c-0,-2.518 0.725,-4.817 2.176,-6.897c1.451,-2.08 3.531,-3.722 6.24,-4.927c2.71,-1.204 5.899,-1.806 9.566,-1.806c5.42,-0 9.744,1.355 12.974,4.064c3.23,2.71 5.009,6.364 5.337,10.962l-11.003,0c-0.164,-1.806 -0.917,-3.243 -2.258,-4.311c-1.341,-1.067 -3.134,-1.601 -5.378,-1.601c-2.08,0 -3.681,0.383 -4.804,1.15c-1.122,0.766 -1.683,1.834 -1.683,3.202c0,1.533 0.766,2.696 2.299,3.49c1.533,0.794 3.914,1.601 7.144,2.422c3.284,0.821 5.994,1.67 8.129,2.546c2.135,0.876 3.982,2.23 5.543,4.064c1.56,1.834 2.367,4.256 2.422,7.267c-0,2.628 -0.726,4.982 -2.176,7.062c-1.451,2.08 -3.531,3.708 -6.241,4.885c-2.709,1.177 -5.871,1.766 -9.484,1.766Z" style="fill:#fff;fill-rule:nonzero;"/><path d="M116.189,63.478c0.009,-0.046 0.075,-0.14 0.197,-0.283c0.122,-0.142 0.199,-0.234 0.23,-0.276c0.46,-0.671 0.885,-1.407 1.275,-2.21c0.39,-0.802 0.662,-1.604 0.815,-2.404l0.051,-0.453c-0.274,0.066 -0.552,0.096 -0.835,0.09c-0.283,-0.007 -0.562,-0.037 -0.837,-0.089c-0.068,-0.013 -0.202,-0.056 -0.402,-0.13c-0.199,-0.074 -0.285,-0.179 -0.259,-0.316l0.897,-4.7l0.367,-0.25c0.687,0.131 1.341,0.244 1.962,0.339c0.531,0.077 1.076,0.17 1.637,0.276c0.56,0.107 1.025,0.184 1.396,0.231l1.612,0.308c0.179,0.058 0.301,0.194 0.367,0.408c0.065,0.214 0.083,0.401 0.053,0.561l-0.149,0.967c-0.101,0.526 -0.209,1.063 -0.325,1.609c-0.117,0.547 -0.312,1.043 -0.587,1.489c-0.337,0.528 -0.699,1.057 -1.085,1.588c-0.386,0.531 -0.807,1.031 -1.264,1.501c-0.457,0.47 -0.953,0.891 -1.486,1.263c-0.533,0.372 -1.114,0.653 -1.743,0.841c-0.05,0.014 -0.143,0.038 -0.28,0.071l-0.854,0.192c-0.137,0.034 -0.228,0.046 -0.274,0.037l-0.24,-0.046c-0.229,-0.043 -0.321,-0.18 -0.278,-0.408l0.039,-0.206Z" style="fill:#fff;fill-rule:nonzero;"/><path d="M228.997,52.457l0,57.314l-11.495,-0l-0,-37.279l-15.355,37.279l-8.704,-0l-15.437,-37.279l-0,37.279l-11.496,-0l0,-57.314l13.056,-0l18.229,42.616l18.229,-42.616l12.973,-0Z" style="fill:#fff;fill-rule:nonzero;"/><path d="M278.51,86.04c0,1.643 -0.109,3.121 -0.328,4.434l-33.255,0c0.274,3.285 1.423,5.858 3.449,7.719c2.025,1.861 4.516,2.792 7.472,2.792c4.269,-0 7.308,-1.834 9.114,-5.502l12.399,0c-1.314,4.38 -3.832,7.979 -7.554,10.798c-3.723,2.819 -8.294,4.229 -13.713,4.229c-4.379,-0 -8.307,-0.972 -11.783,-2.915c-3.476,-1.944 -6.186,-4.694 -8.129,-8.252c-1.943,-3.559 -2.915,-7.664 -2.915,-12.317c-0,-4.708 0.958,-8.841 2.874,-12.399c1.916,-3.558 4.598,-6.295 8.047,-8.211c3.449,-1.916 7.417,-2.874 11.906,-2.874c4.325,-0 8.197,0.931 11.619,2.792c3.421,1.861 6.076,4.502 7.965,7.923c1.888,3.422 2.832,7.349 2.832,11.783Zm-11.906,-3.284c-0.054,-2.956 -1.122,-5.324 -3.202,-7.103c-2.08,-1.779 -4.626,-2.668 -7.636,-2.668c-2.847,-0 -5.242,0.862 -7.185,2.586c-1.944,1.725 -3.134,4.12 -3.572,7.185l21.595,0Z" style="fill:#fff;fill-rule:nonzero;"/><path d="M325.068,86.04c-0,1.643 -0.11,3.121 -0.329,4.434l-33.255,0c0.274,3.285 1.423,5.858 3.449,7.719c2.025,1.861 4.516,2.792 7.472,2.792c4.27,-0 7.308,-1.834 9.114,-5.502l12.399,0c-1.314,4.38 -3.832,7.979 -7.554,10.798c-3.723,2.819 -8.293,4.229 -13.713,4.229c-4.379,-0 -8.307,-0.972 -11.783,-2.915c-3.476,-1.944 -6.186,-4.694 -8.129,-8.252c-1.943,-3.559 -2.915,-7.664 -2.915,-12.317c0,-4.708 0.958,-8.841 2.874,-12.399c1.916,-3.558 4.598,-6.295 8.047,-8.211c3.449,-1.916 7.417,-2.874 11.906,-2.874c4.325,-0 8.198,0.931 11.619,2.792c3.421,1.861 6.076,4.502 7.965,7.923c1.888,3.422 2.833,7.349 2.833,11.783Zm-11.906,-3.284c-0.055,-2.956 -1.123,-5.324 -3.203,-7.103c-2.08,-1.779 -4.625,-2.668 -7.636,-2.668c-2.847,-0 -5.242,0.862 -7.185,2.586c-1.943,1.725 -3.134,4.12 -3.572,7.185l21.596,0Z" style="fill:#fff;fill-rule:nonzero;"/><path d="M342.722,73.724l-0,22.006c-0,1.532 0.369,2.641 1.108,3.325c0.739,0.684 1.985,1.027 3.736,1.027l5.337,-0l0,9.689l-7.225,-0c-9.689,-0 -14.534,-4.708 -14.534,-14.123l-0,-21.924l-5.419,-0l-0,-9.443l5.419,-0l-0,-11.249l11.578,-0l-0,11.249l10.181,-0l0,9.443l-10.181,-0Z" style="fill:#fff;fill-rule:nonzero;"/></g><path d="M369.209,115.417l-371.523,-0l2.139,34.823l335.811,-0l33.573,-34.823Z" style="fill:#f80074;"/><g><path d="M10.514,132.978c-0,-1.485 0.335,-2.82 1.004,-4.006c0.67,-1.187 1.583,-2.114 2.74,-2.784c1.157,-0.669 2.442,-1.004 3.853,-1.004c1.659,-0 3.108,0.4 4.345,1.201c1.237,0.8 2.139,1.935 2.707,3.405l-2.38,0c-0.422,-0.917 -1.03,-1.623 -1.823,-2.117c-0.793,-0.495 -1.743,-0.743 -2.849,-0.743c-1.062,0 -2.016,0.248 -2.86,0.743c-0.844,0.494 -1.506,1.197 -1.986,2.106c-0.481,0.91 -0.721,1.976 -0.721,3.199c0,1.208 0.24,2.266 0.721,3.176c0.48,0.91 1.142,1.612 1.986,2.107c0.844,0.495 1.798,0.742 2.86,0.742c1.106,0 2.056,-0.244 2.849,-0.731c0.793,-0.488 1.401,-1.19 1.823,-2.107l2.38,-0c-0.568,1.455 -1.47,2.58 -2.707,3.373c-1.237,0.793 -2.686,1.19 -4.345,1.19c-1.411,-0 -2.696,-0.331 -3.853,-0.994c-1.157,-0.662 -2.07,-1.582 -2.74,-2.761c-0.669,-1.179 -1.004,-2.511 -1.004,-3.995Z" style="fill:#fff;fill-rule:nonzero;"/><path d="M32.236,140.793c-1.121,0 -2.136,-0.254 -3.045,-0.764c-0.91,-0.509 -1.623,-1.233 -2.14,-2.172c-0.516,-0.939 -0.775,-2.027 -0.775,-3.264c0,-1.222 0.266,-2.303 0.797,-3.242c0.531,-0.939 1.255,-1.659 2.172,-2.161c0.917,-0.502 1.943,-0.753 3.078,-0.753c1.136,-0 2.162,0.251 3.079,0.753c0.917,0.502 1.641,1.219 2.172,2.15c0.531,0.932 0.797,2.016 0.797,3.253c-0,1.237 -0.273,2.325 -0.819,3.264c-0.546,0.939 -1.284,1.663 -2.216,2.172c-0.931,0.51 -1.965,0.764 -3.1,0.764Zm0,-1.746c0.713,-0 1.383,-0.168 2.009,-0.502c0.625,-0.335 1.131,-0.837 1.517,-1.507c0.386,-0.669 0.578,-1.484 0.578,-2.445c0,-0.96 -0.189,-1.775 -0.567,-2.445c-0.379,-0.669 -0.873,-1.168 -1.485,-1.495c-0.611,-0.328 -1.273,-0.492 -1.986,-0.492c-0.728,0 -1.394,0.164 -1.998,0.492c-0.604,0.327 -1.088,0.826 -1.452,1.495c-0.364,0.67 -0.545,1.485 -0.545,2.445c-0,0.975 0.178,1.798 0.534,2.467c0.357,0.67 0.834,1.168 1.43,1.496c0.597,0.327 1.252,0.491 1.965,0.491Z" style="fill:#fff;fill-rule:nonzero;"/><rect x="39.899" y="124.442" width="1.987" height="16.155" style="fill:#fff;fill-rule:nonzero;"/><rect x="44.178" y="124.442" width="1.987" height="16.155" style="fill:#fff;fill-rule:nonzero;"/><path d="M47.715,134.571c-0,-1.222 0.247,-2.296 0.742,-3.22c0.495,-0.924 1.175,-1.641 2.041,-2.15c0.866,-0.51 1.83,-0.764 2.893,-0.764c1.048,-0 1.957,0.225 2.729,0.676c0.771,0.452 1.346,1.019 1.724,1.703l0,-2.183l2.009,0l-0,11.964l-2.009,-0l0,-2.227c-0.393,0.699 -0.978,1.277 -1.757,1.736c-0.779,0.458 -1.685,0.687 -2.718,0.687c-1.063,0 -2.023,-0.262 -2.882,-0.786c-0.859,-0.524 -1.535,-1.259 -2.03,-2.205c-0.495,-0.946 -0.742,-2.023 -0.742,-3.231Zm10.129,0.022c0,-0.902 -0.182,-1.688 -0.545,-2.358c-0.364,-0.669 -0.856,-1.182 -1.474,-1.539c-0.619,-0.356 -1.299,-0.535 -2.041,-0.535c-0.743,0 -1.419,0.175 -2.031,0.524c-0.611,0.35 -1.098,0.859 -1.462,1.529c-0.364,0.669 -0.546,1.455 -0.546,2.357c-0,0.917 0.182,1.714 0.546,2.391c0.364,0.677 0.851,1.193 1.462,1.55c0.612,0.356 1.288,0.535 2.031,0.535c0.742,-0 1.422,-0.179 2.041,-0.535c0.618,-0.357 1.11,-0.873 1.474,-1.55c0.363,-0.677 0.545,-1.467 0.545,-2.369Z" style="fill:#fff;fill-rule:nonzero;"/><path d="M64.11,130.86c0.407,-0.713 1.004,-1.295 1.79,-1.747c0.786,-0.451 1.681,-0.676 2.685,-0.676c1.077,-0 2.045,0.254 2.904,0.764c0.859,0.509 1.535,1.226 2.03,2.15c0.495,0.924 0.743,1.998 0.743,3.22c-0,1.208 -0.248,2.285 -0.743,3.231c-0.495,0.946 -1.175,1.681 -2.041,2.205c-0.866,0.524 -1.83,0.786 -2.893,0.786c-1.033,0 -1.939,-0.225 -2.718,-0.677c-0.778,-0.451 -1.364,-1.026 -1.757,-1.724l-0,2.205l-1.987,-0l0,-16.155l1.987,-0l-0,6.418Zm8.121,3.711c0,-0.902 -0.182,-1.688 -0.546,-2.357c-0.363,-0.67 -0.855,-1.179 -1.473,-1.529c-0.619,-0.349 -1.299,-0.524 -2.041,-0.524c-0.728,0 -1.401,0.179 -2.02,0.535c-0.618,0.357 -1.113,0.873 -1.484,1.55c-0.372,0.677 -0.557,1.459 -0.557,2.347c-0,0.902 0.185,1.692 0.557,2.369c0.371,0.677 0.866,1.193 1.484,1.55c0.619,0.356 1.292,0.535 2.02,0.535c0.742,-0 1.422,-0.179 2.041,-0.535c0.618,-0.357 1.11,-0.873 1.473,-1.55c0.364,-0.677 0.546,-1.474 0.546,-2.391Z" style="fill:#fff;fill-rule:nonzero;"/><path d="M81.007,140.793c-1.12,0 -2.135,-0.254 -3.045,-0.764c-0.91,-0.509 -1.623,-1.233 -2.14,-2.172c-0.516,-0.939 -0.775,-2.027 -0.775,-3.264c0,-1.222 0.266,-2.303 0.797,-3.242c0.532,-0.939 1.256,-1.659 2.173,-2.161c0.916,-0.502 1.942,-0.753 3.078,-0.753c1.135,-0 2.161,0.251 3.078,0.753c0.917,0.502 1.641,1.219 2.172,2.15c0.531,0.932 0.797,2.016 0.797,3.253c0,1.237 -0.273,2.325 -0.819,3.264c-0.545,0.939 -1.284,1.663 -2.216,2.172c-0.931,0.51 -1.964,0.764 -3.1,0.764Zm0,-1.746c0.714,-0 1.383,-0.168 2.009,-0.502c0.626,-0.335 1.131,-0.837 1.517,-1.507c0.386,-0.669 0.579,-1.484 0.579,-2.445c-0,-0.96 -0.19,-1.775 -0.568,-2.445c-0.378,-0.669 -0.873,-1.168 -1.484,-1.495c-0.612,-0.328 -1.274,-0.492 -1.987,-0.492c-0.728,0 -1.394,0.164 -1.998,0.492c-0.604,0.327 -1.088,0.826 -1.451,1.495c-0.364,0.67 -0.546,1.485 -0.546,2.445c-0,0.975 0.178,1.798 0.535,2.467c0.356,0.67 0.833,1.168 1.43,1.496c0.596,0.327 1.251,0.491 1.964,0.491Z" style="fill:#fff;fill-rule:nonzero;"/><path d="M90.657,130.576c0.349,-0.684 0.848,-1.215 1.495,-1.594c0.648,-0.378 1.438,-0.567 2.369,-0.567l0,2.052l-0.524,0c-2.227,0 -3.34,1.208 -3.34,3.624l-0,6.506l-1.987,-0l0,-11.964l1.987,0l-0,1.943Z" style="fill:#fff;fill-rule:nonzero;"/><path d="M94.979,134.571c0,-1.222 0.248,-2.296 0.743,-3.22c0.495,-0.924 1.175,-1.641 2.041,-2.15c0.866,-0.51 1.83,-0.764 2.893,-0.764c1.048,-0 1.957,0.225 2.729,0.676c0.771,0.452 1.346,1.019 1.724,1.703l0,-2.183l2.009,0l-0,11.964l-2.009,-0l0,-2.227c-0.393,0.699 -0.979,1.277 -1.757,1.736c-0.779,0.458 -1.685,0.687 -2.718,0.687c-1.063,0 -2.023,-0.262 -2.882,-0.786c-0.859,-0.524 -1.535,-1.259 -2.03,-2.205c-0.495,-0.946 -0.743,-2.023 -0.743,-3.231Zm10.13,0.022c0,-0.902 -0.182,-1.688 -0.546,-2.358c-0.363,-0.669 -0.855,-1.182 -1.473,-1.539c-0.619,-0.356 -1.299,-0.535 -2.041,-0.535c-0.743,0 -1.419,0.175 -2.031,0.524c-0.611,0.35 -1.099,0.859 -1.462,1.529c-0.364,0.669 -0.546,1.455 -0.546,2.357c-0,0.917 0.182,1.714 0.546,2.391c0.363,0.677 0.851,1.193 1.462,1.55c0.612,0.356 1.288,0.535 2.031,0.535c0.742,-0 1.422,-0.179 2.041,-0.535c0.618,-0.357 1.11,-0.873 1.473,-1.55c0.364,-0.677 0.546,-1.467 0.546,-2.369Z" style="fill:#fff;fill-rule:nonzero;"/><path d="M111.811,130.271l0,7.051c0,0.582 0.124,0.993 0.372,1.234c0.247,0.24 0.676,0.36 1.288,0.36l1.462,-0l0,1.681l-1.79,-0c-1.106,-0 -1.936,-0.255 -2.489,-0.764c-0.553,-0.51 -0.829,-1.347 -0.829,-2.511l-0,-7.051l-1.55,-0l-0,-1.638l1.55,0l-0,-3.013l1.986,0l0,3.013l3.122,0l0,1.638l-3.122,-0Z" style="fill:#fff;fill-rule:nonzero;"/><path d="M117.269,126.69c-0.378,0 -0.698,-0.131 -0.96,-0.393c-0.262,-0.262 -0.393,-0.582 -0.393,-0.96c-0,-0.379 0.131,-0.699 0.393,-0.961c0.262,-0.262 0.582,-0.393 0.96,-0.393c0.364,0 0.673,0.131 0.928,0.393c0.255,0.262 0.382,0.582 0.382,0.961c0,0.378 -0.127,0.698 -0.382,0.96c-0.255,0.262 -0.564,0.393 -0.928,0.393Zm0.961,1.943l-0,11.964l-1.987,-0l0,-11.964l1.987,0Z" style="fill:#fff;fill-rule:nonzero;"/><path d="M124.976,138.763l3.711,-10.13l2.118,0l-4.694,11.964l-2.314,-0l-4.694,-11.964l2.14,0l3.733,10.13Z" style="fill:#fff;fill-rule:nonzero;"/><path d="M142.594,134.157c-0,0.378 -0.022,0.778 -0.066,1.2l-9.562,0c0.073,1.179 0.477,2.1 1.212,2.762c0.735,0.662 1.626,0.993 2.674,0.993c0.859,0 1.576,-0.2 2.15,-0.6c0.575,-0.4 0.979,-0.935 1.212,-1.605l2.14,0c-0.321,1.15 -0.961,2.085 -1.922,2.806c-0.96,0.72 -2.154,1.08 -3.58,1.08c-1.135,0 -2.15,-0.254 -3.045,-0.764c-0.896,-0.509 -1.598,-1.233 -2.107,-2.172c-0.51,-0.939 -0.764,-2.027 -0.764,-3.264c-0,-1.237 0.247,-2.321 0.742,-3.253c0.495,-0.931 1.19,-1.648 2.085,-2.15c0.895,-0.502 1.925,-0.753 3.089,-0.753c1.135,-0 2.139,0.247 3.013,0.742c0.873,0.495 1.546,1.175 2.019,2.041c0.473,0.866 0.71,1.845 0.71,2.937Zm-2.052,-0.415c-0,-0.757 -0.168,-1.408 -0.503,-1.954c-0.334,-0.546 -0.789,-0.961 -1.364,-1.245c-0.575,-0.283 -1.212,-0.425 -1.91,-0.425c-1.005,-0 -1.86,0.32 -2.565,0.96c-0.706,0.641 -1.11,1.528 -1.212,2.664l7.554,-0Z" style="fill:#fff;fill-rule:nonzero;"/><path d="M163.246,128.415c0.932,-0 1.761,0.193 2.489,0.578c0.728,0.386 1.303,0.965 1.725,1.736c0.422,0.771 0.633,1.71 0.633,2.816l-0,7.052l-1.965,-0l-0,-6.768c-0,-1.193 -0.295,-2.107 -0.884,-2.74c-0.59,-0.633 -1.387,-0.949 -2.391,-0.949c-1.033,-0 -1.855,0.331 -2.467,0.993c-0.611,0.662 -0.917,1.619 -0.917,2.871l0,6.593l-1.965,-0l0,-6.768c0,-1.193 -0.294,-2.107 -0.884,-2.74c-0.589,-0.633 -1.386,-0.949 -2.39,-0.949c-1.034,-0 -1.856,0.331 -2.467,0.993c-0.611,0.662 -0.917,1.619 -0.917,2.871l-0,6.593l-1.987,-0l0,-11.964l1.987,0l-0,1.725c0.393,-0.626 0.92,-1.106 1.583,-1.441c0.662,-0.335 1.393,-0.502 2.194,-0.502c1.004,-0 1.892,0.225 2.663,0.677c0.772,0.451 1.346,1.113 1.725,1.986c0.335,-0.844 0.888,-1.499 1.659,-1.965c0.771,-0.465 1.63,-0.698 2.576,-0.698Z" style="fill:#fff;fill-rule:nonzero;"/><path d="M181.17,134.157c-0,0.378 -0.022,0.778 -0.066,1.2l-9.562,0c0.073,1.179 0.477,2.1 1.212,2.762c0.735,0.662 1.626,0.993 2.674,0.993c0.859,0 1.576,-0.2 2.15,-0.6c0.575,-0.4 0.979,-0.935 1.212,-1.605l2.14,0c-0.321,1.15 -0.961,2.085 -1.922,2.806c-0.96,0.72 -2.154,1.08 -3.58,1.08c-1.135,0 -2.15,-0.254 -3.045,-0.764c-0.896,-0.509 -1.598,-1.233 -2.107,-2.172c-0.51,-0.939 -0.764,-2.027 -0.764,-3.264c-0,-1.237 0.247,-2.321 0.742,-3.253c0.495,-0.931 1.19,-1.648 2.085,-2.15c0.895,-0.502 1.925,-0.753 3.089,-0.753c1.135,-0 2.14,0.247 3.013,0.742c0.873,0.495 1.546,1.175 2.019,2.041c0.473,0.866 0.71,1.845 0.71,2.937Zm-2.052,-0.415c-0,-0.757 -0.168,-1.408 -0.503,-1.954c-0.334,-0.546 -0.789,-0.961 -1.364,-1.245c-0.575,-0.283 -1.212,-0.425 -1.91,-0.425c-1.005,-0 -1.86,0.32 -2.565,0.96c-0.706,0.641 -1.11,1.528 -1.212,2.664l7.554,-0Z" style="fill:#fff;fill-rule:nonzero;"/><path d="M193.614,134.157c-0,0.378 -0.022,0.778 -0.066,1.2l-9.562,0c0.073,1.179 0.477,2.1 1.212,2.762c0.735,0.662 1.626,0.993 2.674,0.993c0.859,0 1.575,-0.2 2.15,-0.6c0.575,-0.4 0.979,-0.935 1.212,-1.605l2.139,0c-0.32,1.15 -0.96,2.085 -1.921,2.806c-0.96,0.72 -2.154,1.08 -3.58,1.08c-1.135,0 -2.15,-0.254 -3.046,-0.764c-0.895,-0.509 -1.597,-1.233 -2.106,-2.172c-0.51,-0.939 -0.764,-2.027 -0.764,-3.264c-0,-1.237 0.247,-2.321 0.742,-3.253c0.495,-0.931 1.19,-1.648 2.085,-2.15c0.895,-0.502 1.925,-0.753 3.089,-0.753c1.135,-0 2.139,0.247 3.013,0.742c0.873,0.495 1.546,1.175 2.019,2.041c0.473,0.866 0.71,1.845 0.71,2.937Zm-2.053,-0.415c0,-0.757 -0.167,-1.408 -0.502,-1.954c-0.334,-0.546 -0.789,-0.961 -1.364,-1.245c-0.575,-0.283 -1.212,-0.425 -1.91,-0.425c-1.005,-0 -1.86,0.32 -2.566,0.96c-0.705,0.641 -1.109,1.528 -1.211,2.664l7.553,-0Z" style="fill:#fff;fill-rule:nonzero;"/><path d="M197.565,130.271l0,7.051c0,0.582 0.124,0.993 0.371,1.234c0.248,0.24 0.677,0.36 1.288,0.36l1.463,-0l-0,1.681l-1.79,-0c-1.106,-0 -1.936,-0.255 -2.489,-0.764c-0.553,-0.51 -0.83,-1.347 -0.83,-2.511l0,-7.051l-1.55,-0l0,-1.638l1.55,0l0,-3.013l1.987,0l0,3.013l3.122,0l-0,1.638l-3.122,-0Z" style="fill:#fff;fill-rule:nonzero;"/><path d="M203.023,126.69c-0.379,0 -0.699,-0.131 -0.961,-0.393c-0.262,-0.262 -0.393,-0.582 -0.393,-0.96c0,-0.379 0.131,-0.699 0.393,-0.961c0.262,-0.262 0.582,-0.393 0.961,-0.393c0.364,0 0.673,0.131 0.928,0.393c0.254,0.262 0.382,0.582 0.382,0.961c-0,0.378 -0.128,0.698 -0.382,0.96c-0.255,0.262 -0.564,0.393 -0.928,0.393Zm0.96,1.943l0,11.964l-1.986,-0l-0,-11.964l1.986,0Z" style="fill:#fff;fill-rule:nonzero;"/><path d="M212.105,128.415c1.455,-0 2.634,0.44 3.536,1.321c0.903,0.88 1.354,2.15 1.354,3.809l-0,7.052l-1.965,-0l0,-6.768c0,-1.193 -0.298,-2.107 -0.895,-2.74c-0.597,-0.633 -1.412,-0.949 -2.445,-0.949c-1.048,-0 -1.881,0.327 -2.5,0.982c-0.618,0.655 -0.928,1.608 -0.928,2.86l0,6.615l-1.986,-0l-0,-11.964l1.986,0l0,1.703c0.393,-0.611 0.928,-1.084 1.605,-1.419c0.677,-0.335 1.423,-0.502 2.238,-0.502Z" style="fill:#fff;fill-rule:nonzero;"/><path d="M224.09,128.437c1.033,-0 1.939,0.225 2.718,0.676c0.779,0.452 1.357,1.019 1.736,1.703l-0,-2.183l2.008,0l0,12.226c0,1.091 -0.233,2.063 -0.698,2.914c-0.466,0.852 -1.132,1.518 -1.998,1.998c-0.866,0.48 -1.874,0.72 -3.024,0.72c-1.571,0 -2.881,-0.371 -3.929,-1.113c-1.048,-0.742 -1.667,-1.754 -1.856,-3.035l1.965,0c0.218,0.728 0.669,1.314 1.353,1.758c0.684,0.444 1.507,0.666 2.467,0.666c1.092,-0 1.983,-0.342 2.675,-1.027c0.691,-0.684 1.037,-1.644 1.037,-2.881l-0,-2.511c-0.393,0.699 -0.975,1.281 -1.747,1.747c-0.771,0.465 -1.674,0.698 -2.707,0.698c-1.062,0 -2.027,-0.262 -2.893,-0.786c-0.866,-0.524 -1.546,-1.259 -2.041,-2.205c-0.495,-0.946 -0.742,-2.023 -0.742,-3.231c-0,-1.222 0.247,-2.296 0.742,-3.22c0.495,-0.924 1.175,-1.641 2.041,-2.15c0.866,-0.51 1.831,-0.764 2.893,-0.764Zm4.454,6.156c-0,-0.902 -0.182,-1.688 -0.546,-2.358c-0.364,-0.669 -0.855,-1.182 -1.474,-1.539c-0.618,-0.356 -1.299,-0.535 -2.041,-0.535c-0.742,0 -1.419,0.175 -2.03,0.524c-0.612,0.35 -1.099,0.859 -1.463,1.529c-0.364,0.669 -0.546,1.455 -0.546,2.357c0,0.917 0.182,1.714 0.546,2.391c0.364,0.677 0.851,1.193 1.463,1.55c0.611,0.356 1.288,0.535 2.03,0.535c0.742,-0 1.423,-0.179 2.041,-0.535c0.619,-0.357 1.11,-0.873 1.474,-1.55c0.364,-0.677 0.546,-1.467 0.546,-2.369Z" style="fill:#fff;fill-rule:nonzero;"/><path d="M242.778,140.793c-1.121,0 -2.136,-0.254 -3.046,-0.764c-0.909,-0.509 -1.623,-1.233 -2.139,-2.172c-0.517,-0.939 -0.775,-2.027 -0.775,-3.264c-0,-1.222 0.265,-2.303 0.797,-3.242c0.531,-0.939 1.255,-1.659 2.172,-2.161c0.917,-0.502 1.943,-0.753 3.078,-0.753c1.135,-0 2.161,0.251 3.078,0.753c0.917,0.502 1.641,1.219 2.173,2.15c0.531,0.932 0.796,2.016 0.796,3.253c0,1.237 -0.273,2.325 -0.818,3.264c-0.546,0.939 -1.285,1.663 -2.216,2.172c-0.932,0.51 -1.965,0.764 -3.1,0.764Zm-0,-1.746c0.713,-0 1.382,-0.168 2.008,-0.502c0.626,-0.335 1.132,-0.837 1.518,-1.507c0.385,-0.669 0.578,-1.484 0.578,-2.445c0,-0.96 -0.189,-1.775 -0.568,-2.445c-0.378,-0.669 -0.873,-1.168 -1.484,-1.495c-0.611,-0.328 -1.274,-0.492 -1.987,-0.492c-0.727,0 -1.393,0.164 -1.997,0.492c-0.604,0.327 -1.088,0.826 -1.452,1.495c-0.364,0.67 -0.546,1.485 -0.546,2.445c0,0.975 0.178,1.798 0.535,2.467c0.357,0.67 0.833,1.168 1.43,1.496c0.597,0.327 1.252,0.491 1.965,0.491Z" style="fill:#fff;fill-rule:nonzero;"/><path d="M252.427,130.576c0.35,-0.684 0.848,-1.215 1.496,-1.594c0.647,-0.378 1.437,-0.567 2.368,-0.567l0,2.052l-0.524,0c-2.226,0 -3.34,1.208 -3.34,3.624l0,6.506l-1.986,-0l-0,-11.964l1.986,0l0,1.943Z" style="fill:#fff;fill-rule:nonzero;"/><path d="M262.426,128.437c1.033,-0 1.939,0.225 2.718,0.676c0.779,0.452 1.357,1.019 1.736,1.703l-0,-2.183l2.008,0l0,12.226c0,1.091 -0.233,2.063 -0.699,2.914c-0.465,0.852 -1.131,1.518 -1.997,1.998c-0.866,0.48 -1.874,0.72 -3.024,0.72c-1.572,0 -2.881,-0.371 -3.929,-1.113c-1.048,-0.742 -1.667,-1.754 -1.856,-3.035l1.965,0c0.218,0.728 0.669,1.314 1.353,1.758c0.684,0.444 1.507,0.666 2.467,0.666c1.092,-0 1.983,-0.342 2.675,-1.027c0.691,-0.684 1.037,-1.644 1.037,-2.881l-0,-2.511c-0.393,0.699 -0.976,1.281 -1.747,1.747c-0.771,0.465 -1.674,0.698 -2.707,0.698c-1.062,0 -2.027,-0.262 -2.893,-0.786c-0.866,-0.524 -1.546,-1.259 -2.041,-2.205c-0.495,-0.946 -0.742,-2.023 -0.742,-3.231c-0,-1.222 0.247,-2.296 0.742,-3.22c0.495,-0.924 1.175,-1.641 2.041,-2.15c0.866,-0.51 1.831,-0.764 2.893,-0.764Zm4.454,6.156c-0,-0.902 -0.182,-1.688 -0.546,-2.358c-0.364,-0.669 -0.855,-1.182 -1.474,-1.539c-0.618,-0.356 -1.299,-0.535 -2.041,-0.535c-0.742,0 -1.419,0.175 -2.03,0.524c-0.612,0.35 -1.099,0.859 -1.463,1.529c-0.364,0.669 -0.546,1.455 -0.546,2.357c0,0.917 0.182,1.714 0.546,2.391c0.364,0.677 0.851,1.193 1.463,1.55c0.611,0.356 1.288,0.535 2.03,0.535c0.742,-0 1.423,-0.179 2.041,-0.535c0.619,-0.357 1.11,-0.873 1.474,-1.55c0.364,-0.677 0.546,-1.467 0.546,-2.369Z" style="fill:#fff;fill-rule:nonzero;"/><path d="M270.416,134.571c0,-1.222 0.248,-2.296 0.743,-3.22c0.494,-0.924 1.175,-1.641 2.041,-2.15c0.866,-0.51 1.83,-0.764 2.892,-0.764c1.048,-0 1.958,0.225 2.729,0.676c0.772,0.452 1.347,1.019 1.725,1.703l0,-2.183l2.009,0l-0,11.964l-2.009,-0l0,-2.227c-0.393,0.699 -0.979,1.277 -1.757,1.736c-0.779,0.458 -1.685,0.687 -2.718,0.687c-1.063,0 -2.023,-0.262 -2.882,-0.786c-0.859,-0.524 -1.536,-1.259 -2.03,-2.205c-0.495,-0.946 -0.743,-2.023 -0.743,-3.231Zm10.13,0.022c0,-0.902 -0.182,-1.688 -0.546,-2.358c-0.364,-0.669 -0.855,-1.182 -1.473,-1.539c-0.619,-0.356 -1.299,-0.535 -2.042,-0.535c-0.742,0 -1.419,0.175 -2.03,0.524c-0.611,0.35 -1.099,0.859 -1.463,1.529c-0.363,0.669 -0.545,1.455 -0.545,2.357c-0,0.917 0.182,1.714 0.545,2.391c0.364,0.677 0.852,1.193 1.463,1.55c0.611,0.356 1.288,0.535 2.03,0.535c0.743,-0 1.423,-0.179 2.042,-0.535c0.618,-0.357 1.109,-0.873 1.473,-1.55c0.364,-0.677 0.546,-1.467 0.546,-2.369Z" style="fill:#fff;fill-rule:nonzero;"/><path d="M290.654,128.415c1.455,-0 2.634,0.44 3.537,1.321c0.902,0.88 1.353,2.15 1.353,3.809l0,7.052l-1.965,-0l0,-6.768c0,-1.193 -0.298,-2.107 -0.895,-2.74c-0.596,-0.633 -1.412,-0.949 -2.445,-0.949c-1.048,-0 -1.881,0.327 -2.5,0.982c-0.618,0.655 -0.927,1.608 -0.927,2.86l-0,6.615l-1.987,-0l-0,-11.964l1.987,0l-0,1.703c0.393,-0.611 0.927,-1.084 1.604,-1.419c0.677,-0.335 1.423,-0.502 2.238,-0.502Z" style="fill:#fff;fill-rule:nonzero;"/><path d="M298.732,126.69c-0.379,0 -0.699,-0.131 -0.961,-0.393c-0.262,-0.262 -0.393,-0.582 -0.393,-0.96c-0,-0.379 0.131,-0.699 0.393,-0.961c0.262,-0.262 0.582,-0.393 0.961,-0.393c0.363,0 0.673,0.131 0.927,0.393c0.255,0.262 0.382,0.582 0.382,0.961c0,0.378 -0.127,0.698 -0.382,0.96c-0.254,0.262 -0.564,0.393 -0.927,0.393Zm0.96,1.943l0,11.964l-1.987,-0l0,-11.964l1.987,0Z" style="fill:#fff;fill-rule:nonzero;"/><path d="M306.22,140.793c-0.917,0 -1.74,-0.156 -2.467,-0.469c-0.728,-0.313 -1.303,-0.75 -1.725,-1.31c-0.422,-0.56 -0.655,-1.204 -0.699,-1.932l2.053,-0c0.058,0.597 0.338,1.084 0.84,1.463c0.502,0.378 1.161,0.567 1.976,0.567c0.757,0 1.353,-0.167 1.79,-0.502c0.437,-0.335 0.655,-0.757 0.655,-1.266c-0,-0.524 -0.233,-0.913 -0.699,-1.168c-0.465,-0.255 -1.186,-0.506 -2.161,-0.753c-0.888,-0.233 -1.612,-0.47 -2.172,-0.71c-0.56,-0.24 -1.041,-0.597 -1.441,-1.07c-0.4,-0.473 -0.6,-1.095 -0.6,-1.866c-0,-0.611 0.182,-1.172 0.545,-1.681c0.364,-0.51 0.881,-0.913 1.55,-1.212c0.67,-0.298 1.434,-0.447 2.293,-0.447c1.324,-0 2.394,0.334 3.209,1.004c0.815,0.669 1.252,1.586 1.31,2.751l-1.987,-0c-0.044,-0.626 -0.295,-1.128 -0.753,-1.507c-0.458,-0.378 -1.073,-0.567 -1.845,-0.567c-0.713,-0 -1.281,0.153 -1.703,0.458c-0.422,0.306 -0.633,0.706 -0.633,1.201c0,0.393 0.128,0.717 0.382,0.971c0.255,0.255 0.575,0.459 0.961,0.612c0.386,0.152 0.92,0.323 1.605,0.513c0.858,0.233 1.557,0.462 2.095,0.687c0.539,0.226 1.001,0.564 1.387,1.016c0.385,0.451 0.585,1.04 0.6,1.768c-0,0.655 -0.182,1.244 -0.546,1.768c-0.364,0.524 -0.877,0.935 -1.539,1.234c-0.662,0.298 -1.423,0.447 -2.281,0.447Z" style="fill:#fff;fill-rule:nonzero;"/><path d="M323.204,134.157c0,0.378 -0.021,0.778 -0.065,1.2l-9.562,0c0.073,1.179 0.477,2.1 1.212,2.762c0.734,0.662 1.626,0.993 2.674,0.993c0.859,0 1.575,-0.2 2.15,-0.6c0.575,-0.4 0.979,-0.935 1.212,-1.605l2.139,0c-0.32,1.15 -0.96,2.085 -1.921,2.806c-0.96,0.72 -2.154,1.08 -3.58,1.08c-1.135,0 -2.151,-0.254 -3.046,-0.764c-0.895,-0.509 -1.597,-1.233 -2.106,-2.172c-0.51,-0.939 -0.764,-2.027 -0.764,-3.264c-0,-1.237 0.247,-2.321 0.742,-3.253c0.495,-0.931 1.19,-1.648 2.085,-2.15c0.895,-0.502 1.925,-0.753 3.089,-0.753c1.135,-0 2.139,0.247 3.013,0.742c0.873,0.495 1.546,1.175 2.019,2.041c0.473,0.866 0.709,1.845 0.709,2.937Zm-2.052,-0.415c0,-0.757 -0.167,-1.408 -0.502,-1.954c-0.335,-0.546 -0.789,-0.961 -1.364,-1.245c-0.575,-0.283 -1.212,-0.425 -1.91,-0.425c-1.005,-0 -1.86,0.32 -2.566,0.96c-0.706,0.641 -1.109,1.528 -1.211,2.664l7.553,-0Z" style="fill:#fff;fill-rule:nonzero;"/><path d="M326.719,130.576c0.35,-0.684 0.848,-1.215 1.496,-1.594c0.647,-0.378 1.437,-0.567 2.368,-0.567l0,2.052l-0.523,0c-2.227,0 -3.341,1.208 -3.341,3.624l0,6.506l-1.986,-0l-0,-11.964l1.986,0l0,1.943Z" style="fill:#fff;fill-rule:nonzero;"/></g></svg>